<?xml version="1.0" encoding="utf-8"?>
<!-- Generator: Adobe Illustrator 27.5.0, SVG Export Plug-In . SVG Version: 6.00 Build 0)  -->
<svg version="1.1" id="Layer_1" xmlns="http://www.w3.org/2000/svg" xmlns:xlink="http://www.w3.org/1999/xlink" x="0px" y="0px"
	 viewBox="0 0 50 50" style="enable-background:new 0 0 50 50;" xml:space="preserve">
<style type="text/css">
	.st0{fill:#FFFFFF;}
	.st1{fill:#681111;}
</style>
<rect x="0" class="st0" width="50" height="50"/>
<g>
	<g>
		<path class="st1" d="M6.6,46.33c-0.73-0.75-1.31-1.65-1.75-2.7c-0.43-1.06-0.64-2.22-0.64-3.47c0-1.26,0.2-2.38,0.61-3.37
			c0.41-1,0.98-1.87,1.7-2.6c1.55-1.56,3.49-2.33,5.82-2.33c2.32,0,4.22,0.77,5.7,2.3c1.5,1.56,2.25,3.57,2.25,6.05
			c0,2.47-0.77,4.51-2.31,6.1c-0.96,0.99-2.15,1.67-3.56,2.05c-0.7,0.18-1.51,0.28-2.44,0.28c-0.92,0-1.87-0.2-2.84-0.59
			C8.18,47.63,7.33,47.06,6.6,46.33z M11.97,32.69c-0.42,0-0.82,0.03-1.19,0.09v14.9c0.35,0.06,0.75,0.09,1.19,0.09
			c2.06,0,3.79-0.69,5.2-2.06c1.47-1.42,2.21-3.27,2.21-5.52c0-2.15-0.69-3.94-2.07-5.36C15.91,33.41,14.13,32.69,11.97,32.69z"/>
		<g>
			<path class="st1" d="M33.92,32.41c0-0.32-0.16-0.48-0.48-0.48c-0.26,0-0.46,0.21-0.62,0.63c-0.15,0.41-0.34,0.82-0.56,1.22
				l-2.97,5.29l-3.32-7.01H19.2l6.9,12.65l-0.59,1.06c-0.36,0.63-0.75,1.18-1.15,1.66c-0.2,0.25-0.3,0.48-0.3,0.69
				c0,0.34,0.17,0.51,0.5,0.51c0.33,0,0.6-0.2,0.8-0.6l0.2-0.42c0.05-0.1,0.12-0.23,0.21-0.38l7.95-14.17
				C33.85,32.8,33.92,32.59,33.92,32.41z"/>
			<path class="st1" d="M44.25,40.83c-0.34-0.53-0.84-1.12-1.5-1.78c-0.65-0.66-1.52-1.43-2.6-2.3c-1.08-0.88-1.8-1.56-2.17-2.03
				c-0.21-0.27-0.31-0.57-0.31-0.88c0-0.76,0.58-1.14,1.73-1.14c0.63,0,1.27,0.11,1.92,0.33c0.3,0.1,0.57,0.22,0.8,0.35
				c0.24,0.12,0.46,0.27,0.65,0.44c0.19,0.17,0.38,0.26,0.55,0.26c0.29,0,0.44-0.18,0.44-0.53c0-0.17-0.13-0.36-0.4-0.57
				c-0.26-0.21-0.76-0.45-1.48-0.71c-0.72-0.27-1.53-0.41-2.44-0.41c-1.77,0-3.18,0.43-4.21,1.29c-0.48,0.39-0.84,0.86-1.09,1.38
				c-0.24,0.53-0.36,1.06-0.36,1.6s0.06,1.03,0.19,1.48c0.36,1.27,1.53,2.67,3.52,4.21l1.99,1.56c0.68,0.55,1.21,1.02,1.58,1.42
				c0.44,0.46,0.66,0.93,0.66,1.38c0,0.5-0.26,0.9-0.77,1.22c-0.24,0.15-0.54,0.26-0.89,0.35c-0.35,0.09-0.85,0.13-1.5,0.13
				c-0.65,0-1.36-0.13-2.13-0.38c-0.37-0.12-0.72-0.27-1.03-0.44c-0.32-0.18-0.6-0.38-0.86-0.62c-0.26-0.23-0.49-0.35-0.7-0.35
				c-0.32,0-0.48,0.19-0.48,0.56c0,0.19,0.1,0.38,0.29,0.55c0.2,0.17,0.44,0.33,0.71,0.49c1.22,0.7,2.71,1.06,4.47,1.06
				c1.77,0,3.25-0.47,4.44-1.42c0.57-0.45,1-0.98,1.31-1.6c0.32-0.63,0.48-1.39,0.48-2.28C45.07,42.52,44.8,41.66,44.25,40.83z"/>
		</g>
	</g>
	<g>
		<path class="st1" d="M36.28,23.14l-0.86-1.95L28.76,6.09c-0.21-0.5-0.52-0.91-0.86-1.26c-0.59-0.59-1.31-0.96-2.08-1.11
			c-0.73-0.14-1.48-0.09-2.17,0.15c-1.01,0.34-1.91,1.07-2.4,2.22l-7.52,17.06c-0.3,0.69-0.23,1.42,0.07,2.02
			c0.39,0.74,1.14,1.28,2.08,1.28h18.25c1.55,0,2.62-1.45,2.26-2.9C36.36,23.41,36.34,23.28,36.28,23.14z"/>
		<path class="st1" d="M0,0v50h50V0H0z M48.39,45.56c-0.18,0.96-0.74,1.82-1.57,2.35c-0.54,0.34-1.16,0.55-1.87,0.55H5.07
			c-2.57,0-4.27-2.66-3.19-5L19.68,4.94c0.47-1.02,1.17-1.79,1.98-2.36c0.93-0.65,2.01-0.99,3.11-1.03
			c0.74-0.02,1.49,0.08,2.21,0.33c0.79,0.28,1.52,0.73,2.15,1.35c0.47,0.47,0.89,1.03,1.21,1.71l7.52,16.26l1.08,2.35l9.21,19.92
			C48.47,44.15,48.52,44.88,48.39,45.56z"/>
	</g>
</g>
</svg>
