<svg width="41" height="41" viewBox="0 0 41 41" fill="none" xmlns="http://www.w3.org/2000/svg">
<path fill-rule="evenodd" clip-rule="evenodd" d="M11.7102 2.01758C11.7102 1.18915 11.0386 0.517578 10.2102 0.517578C9.38178 0.517578 8.71021 1.18915 8.71021 2.01758V8.57808H2.0155C1.18708 8.57808 0.515503 9.24965 0.515503 10.0781C0.515503 10.9065 1.18708 11.5781 2.0155 11.5781H8.71021V18.1383C8.71021 18.9667 9.38178 19.6383 10.2102 19.6383C11.0386 19.6383 11.7102 18.9667 11.7102 18.1383V11.5781H18.4044C19.2329 11.5781 19.9044 10.9065 19.9044 10.0781C19.9044 9.24965 19.2329 8.57808 18.4044 8.57808H11.7102V2.01758ZM31.8957 4.36179C33.847 2.41304 37.0342 2.38926 39.0143 4.30867C40.9945 6.22808 41.0179 9.36384 39.0666 11.3126L36.1133 14.262L28.9424 7.31119L31.8957 4.36179ZM27.1865 8.97537L34.3581 15.9251L13.7848 36.4659L13.783 36.4642L4.04088 40.4411C3.21734 40.7772 2.38831 39.9739 2.71775 39.1589L6.61498 29.5179L6.61323 29.5162L27.1865 8.97537Z" fill="#681111"/>
</svg>
