<svg width="30" height="30" viewBox="0 0 30 30" fill="none" xmlns="http://www.w3.org/2000/svg">
<path fill-rule="evenodd" clip-rule="evenodd" d="M8.03778 1.98755C8.03778 1.43526 7.59007 0.987549 7.03778 0.987549C6.4855 0.987549 6.03778 1.43526 6.03778 1.98755V6.91268H1.00531C0.453025 6.91268 0.00531006 7.3604 0.00531006 7.91268C0.00531006 8.46497 0.453025 8.91268 1.00531 8.91268H6.03778V13.8378C6.03778 14.3901 6.4855 14.8378 7.03778 14.8378C7.59007 14.8378 8.03778 14.3901 8.03778 13.8378V8.91268H13.0699C13.6222 8.91268 14.0699 8.46497 14.0699 7.91268C14.0699 7.3604 13.6222 6.91268 13.0699 6.91268H8.03778V1.98755ZM23.66 3.62569C25.0965 2.19315 27.4427 2.17564 28.9005 3.58659C30.3582 4.99753 30.3754 7.30264 28.9389 8.73519L26.7649 10.9032L21.486 5.79372L23.66 3.62569ZM20.1934 7.01709L25.4727 12.1258L10.3278 27.2252L10.3265 27.224L3.73832 29.9096C2.91421 30.2455 2.08461 29.4427 2.41429 28.6283L5.04982 22.1179L5.04847 22.1166L20.1934 7.01709Z" fill="#681111"/>
</svg>
