<?xml version="1.0" encoding="utf-8"?>
<!-- Generator: Adobe Illustrator 27.5.0, SVG Export Plug-In . SVG Version: 6.00 Build 0)  -->
<svg version="1.1" id="Layer_1" xmlns="http://www.w3.org/2000/svg" xmlns:xlink="http://www.w3.org/1999/xlink" x="0px" y="0px"
	 viewBox="0 0 40 40" style="enable-background:new 0 0 40 40;" xml:space="preserve">
<style type="text/css">
	.st0{fill:#681111;}
	.st1{fill:#541212;}
</style>
<g>
	<path class="st0" d="M35.87,35.07l-7.05-15.25l-0.83-1.8L22.24,5.58c-0.24-0.52-0.57-0.95-0.92-1.31
		c-0.48-0.48-1.04-0.82-1.64-1.03c-0.55-0.19-1.12-0.27-1.69-0.25c-0.84,0.04-1.67,0.3-2.38,0.79c-0.62,0.43-1.16,1.02-1.52,1.8
		L0.45,35.07c-0.83,1.79,0.48,3.83,2.44,3.83h30.53c0.54,0,1.01-0.16,1.43-0.42c0.64-0.4,1.07-1.06,1.2-1.8
		C36.15,36.15,36.12,35.6,35.87,35.07z M18.16,30.55c-0.68,0-1.24-0.53-1.24-1.19c0-0.66,0.56-1.19,1.24-1.19
		c0.68,0,1.24,0.53,1.24,1.19C19.4,30.02,18.84,30.55,18.16,30.55z M25.15,22.04H11.17c-0.72,0-1.29-0.41-1.59-0.98
		c-0.23-0.46-0.29-1.01-0.05-1.54l5.76-13.06c0.38-0.88,1.07-1.44,1.84-1.7c0.53-0.19,1.1-0.22,1.66-0.12
		c0.58,0.12,1.14,0.4,1.59,0.85c0.26,0.26,0.49,0.57,0.66,0.96l5.1,11.57l0.66,1.49c0.04,0.11,0.06,0.21,0.09,0.31
		C27.15,20.92,26.33,22.04,25.15,22.04z"/>
</g>
<g>
	<path class="st1" d="M39.55,32.85L25.92,3.36c-1.41-3.05-5.39-3.4-7.42-1.09c0.66,0.04,1.3,0.18,1.93,0.44
		c1.5-0.75,3.5-0.25,4.29,1.53l5.75,13.07c0.52,1.19-0.34,2.51-1.64,2.51h-0.01l7.05,15.25c0.25,0.53,0.29,1.09,0.19,1.61h1.05
		C39.07,36.67,40.37,34.63,39.55,32.85z"/>
	<path class="st1" d="M14.85,19.82c-1.29,0-2.16-1.33-1.64-2.51l5.26-11.95c-0.56-0.06-1.14,0.01-1.71,0.17L9.58,21.06
		c0.3,0.57,0.87,0.98,1.59,0.98h13.97c1.19,0,2-1.11,1.73-2.22H14.85z"/>
</g>
</svg>
