<?xml version="1.0" encoding="utf-8"?>
<!-- Generator: Adobe Illustrator 27.5.0, SVG Export Plug-In . SVG Version: 6.00 Build 0)  -->
<svg version="1.1" id="Layer_1" xmlns="http://www.w3.org/2000/svg" xmlns:xlink="http://www.w3.org/1999/xlink" x="0px" y="0px"
	 viewBox="0 0 40 40" style="enable-background:new 0 0 40 40;" xml:space="preserve">
<style type="text/css">
	.st0{fill:#3D1212;}
	.st1{fill:#681111;}
</style>
<g>
	<path class="st0" d="M39.26,33.19L26.4,5.36c-1.33-2.88-5.11-3.08-6.88-1.03c0.55,0.27,0.84,0.47,1.24,0.88
		c1.4-1.64,3.76-0.7,4.51,0.98l5.42,12.33c0.49,1.12-0.32,2.37-1.55,2.37h-0.01l6.65,14.39c0.24,0.5,0.27,1.03,0.18,1.52h0.99
		C38.81,36.8,40.04,34.87,39.26,33.19z"/>
	<path class="st0" d="M15.11,20.89c-1.22,0-2.04-1.25-1.55-2.37l4.8-10.47c-0.38-0.3-0.94-0.5-1.52-0.49L9.75,22.89
		c0.28,0.53,1.21,0.09,1.88,0.09h13.19c1.12,0,1.89-1.05,1.64-2.09H15.11z"/>
</g>
<g>
	<path class="st1" d="M33.86,35.28l-6.65-14.39l-0.78-1.69L21,7.45c-0.23-0.49-0.53-0.9-0.87-1.24c-0.45-0.45-0.98-0.77-1.55-0.97
		C18.06,5.06,17.51,4.98,16.98,5c-0.8,0.03-1.58,0.28-2.25,0.75c-0.58,0.41-1.09,0.97-1.43,1.7L0.44,35.28
		c-0.78,1.69,0.45,3.61,2.31,3.61h28.81c0.51,0,0.96-0.15,1.35-0.4c0.6-0.38,1.01-1,1.14-1.69C34.13,36.31,34.1,35.78,33.86,35.28z
		 M17.15,31.02c-0.64,0-1.17-0.5-1.17-1.13c0-0.62,0.53-1.12,1.17-1.12s1.17,0.5,1.17,1.12C18.32,30.52,17.79,31.02,17.15,31.02z
		 M23.74,22.98H10.56c-0.68,0-1.22-0.39-1.5-0.92c-0.22-0.43-0.27-0.96-0.05-1.46l5.43-12.32c0.36-0.83,1.01-1.36,1.74-1.6
		c0.5-0.18,1.04-0.21,1.57-0.11c0.55,0.11,1.08,0.38,1.5,0.81c0.25,0.25,0.47,0.54,0.62,0.91l4.81,10.92l0.62,1.41
		c0.04,0.1,0.06,0.19,0.08,0.29C25.63,21.93,24.86,22.98,23.74,22.98z"/>
</g>
</svg>
