<svg width="35" height="32" viewBox="0 0 35 32" fill="none" xmlns="http://www.w3.org/2000/svg">
<path fill-rule="evenodd" clip-rule="evenodd" d="M20.9821 2.15942C19.4508 -0.549238 15.5492 -0.549233 14.0179 2.15943L0.522536 26.0314C-0.984897 28.6979 0.941522 31.9999 4.00462 31.9999H30.9954C34.0585 31.9999 35.9849 28.6979 34.4775 26.0314L20.9821 2.15942ZM16 11.9999H19L18.5 21.9999H16.5L16 11.9999ZM18.75 24.2749C18.75 24.9653 18.1904 25.5249 17.5 25.5249C16.8097 25.5249 16.25 24.9653 16.25 24.2749C16.25 23.5846 16.8097 23.0249 17.5 23.0249C18.1904 23.0249 18.75 23.5846 18.75 24.2749Z" fill="#681111"/>
</svg>
