<?xml version="1.0" encoding="utf-8"?>
<!-- Generator: Adobe Illustrator 27.5.0, SVG Export Plug-In . SVG Version: 6.00 Build 0)  -->
<svg version="1.1" id="Layer_1" xmlns="http://www.w3.org/2000/svg" xmlns:xlink="http://www.w3.org/1999/xlink" x="0px" y="0px"
	 viewBox="0 0 27 23" style="enable-background:new 0 0 27 23;" xml:space="preserve">
<style type="text/css">
	.st0{fill-rule:evenodd;clip-rule:evenodd;fill:none;stroke:#681111;stroke-width:2;stroke-miterlimit:10;}
</style>
<path class="st0" d="M25.58,7.03c0-1.9-0.94-3.75-2.52-4.88c-1.05-0.75-2.33-1.16-3.62-1.16c-2.84,0-4.66,2.1-5.94,4.47
	c-1.24-2.32-3.1-4.47-5.94-4.47c-3.4,0-6.15,2.7-6.15,6.04c0,0.14,0,0.28,0,0.41c0.33,4.67,3.65,7.9,12.09,14.14
	c2.22-1.8,4.47-3.58,6.57-5.53c1.53-1.42,3-2.96,4.06-4.76c0.48-0.82,0.94-1.7,1.21-2.61C25.51,8.14,25.59,7.59,25.58,7.03z"/>
</svg>
