<svg width="27" height="23" viewBox="0 0 27 23" fill="none" xmlns="http://www.w3.org/2000/svg">
<mask id="path-1-inside-1_44_433" fill="white">
<path fill-rule="evenodd" clip-rule="evenodd" d="M26.9732 7.34632C26.9824 7.29991 26.9913 7.25336 27 7.20667H26.9843C26.9947 7.05466 27 6.90127 27 6.74667C27 3.02059 23.9255 0 20.1329 0C16.9576 0 14.2855 2.11749 13.5 4.99364C12.7145 2.11749 10.0424 0 6.86705 0C3.07448 0 0 3.02059 0 6.74667C0 6.90127 0.00529298 7.05466 0.0157106 7.20667H1.44764e-05C0.37311 12.4203 4.076 16.0237 13.5 23C20.1251 17.6445 24.2798 14.2356 26.128 10.0394C26.5895 9.23007 26.8862 8.31775 26.9732 7.34632Z"/>
</mask>
<path d="M26.9732 7.34632L25.9921 7.15296L25.9819 7.20461L25.9772 7.25704L26.9732 7.34632ZM27 7.20667L27.9831 7.38969L28.2033 6.20667H27V7.20667ZM26.9843 7.20667L25.9866 7.13829L25.9134 8.20667H26.9843V7.20667ZM13.5 4.99364L12.5353 5.25712L13.5 8.78908L14.4647 5.25712L13.5 4.99364ZM0.0157106 7.20667V8.20667H1.08659L1.01337 7.13829L0.0157106 7.20667ZM1.44764e-05 7.20667V6.20667H-1.0741L-0.997435 7.27804L1.44764e-05 7.20667ZM13.5 23L12.905 23.8037L13.5269 24.2641L14.1287 23.7777L13.5 23ZM26.128 10.0394L25.2593 9.54403L25.2337 9.58897L25.2129 9.63631L26.128 10.0394ZM27.9544 7.53968C27.9642 7.4898 27.9738 7.4398 27.9831 7.38969L26.0169 7.02365C26.0088 7.06691 26.0006 7.11001 25.9921 7.15296L27.9544 7.53968ZM27 6.20667H26.9843V8.20667H27V6.20667ZM26 6.74667C26 6.87844 25.9955 7.00902 25.9866 7.13829L27.9819 7.27504C27.9939 7.10029 28 6.9241 28 6.74667H26ZM20.1329 1C23.39 1 26 3.58947 26 6.74667H28C28 2.4517 24.4611 -1 20.1329 -1V1ZM14.4647 5.25712C15.1316 2.8151 17.4091 1 20.1329 1V-1C16.506 -1 13.4395 1.41987 12.5353 4.73017L14.4647 5.25712ZM14.4647 4.73017C13.5605 1.41987 10.494 -1 6.86705 -1V1C9.59086 1 11.8684 2.8151 12.5353 5.25712L14.4647 4.73017ZM6.86705 -1C2.53894 -1 -1 2.4517 -1 6.74667H1C1 3.58947 3.61002 1 6.86705 1V-1ZM-1 6.74667C-1 6.9241 -0.993925 7.10029 -0.981949 7.27504L1.01337 7.13829C1.00451 7.00902 1 6.87844 1 6.74667H-1ZM0.0157106 6.20667H1.44764e-05V8.20667H0.0157106V6.20667ZM-0.997435 7.27804C-0.791804 10.1515 0.346328 12.556 2.60777 15.1058C4.83601 17.6182 8.19752 20.3189 12.905 23.8037L14.095 22.1963C9.37849 18.7048 6.17655 16.1156 4.10407 13.7788C2.06479 11.4794 1.16493 9.47542 0.997464 7.13529L-0.997435 7.27804ZM14.1287 23.7777C17.431 21.1082 20.1656 18.8861 22.3036 16.8008C24.4476 14.7096 26.0469 12.7045 27.0432 10.4425L25.2129 9.63631C24.3609 11.5705 22.9588 13.368 20.9071 15.3691C18.8493 17.3762 16.1941 19.5364 12.8714 22.2223L14.1287 23.7777ZM25.9772 7.25704C25.9033 8.08164 25.6517 8.85592 25.2593 9.54403L26.9967 10.5347C27.5273 9.60422 27.869 8.55386 27.9692 7.43561L25.9772 7.25704Z" fill="#681111" mask="url(#path-1-inside-1_44_433)"/>
</svg>
