<svg width="37" height="37" viewBox="0 0 37 37" fill="none" xmlns="http://www.w3.org/2000/svg">
<circle cx="18.5" cy="18.5" r="18.5" fill="#D9D9D9"/>
<path d="M24 9H14C11.2386 9 9 11.2386 9 14V24C9 26.7614 11.2386 29 14 29H24C26.7614 29 29 26.7614 29 24V14C29 11.2386 26.7614 9 24 9Z" stroke="#681111" stroke-width="2" stroke-linecap="round" stroke-linejoin="round"/>
<path d="M23 18.3701C23.1234 19.2023 22.9813 20.0523 22.5938 20.7991C22.2063 21.5459 21.5932 22.1515 20.8416 22.5297C20.0901 22.908 19.2385 23.0397 18.4078 22.906C17.5771 22.7723 16.8098 22.3801 16.2149 21.7852C15.6199 21.1903 15.2277 20.4229 15.0941 19.5923C14.9604 18.7616 15.0921 17.91 15.4703 17.1584C15.8486 16.4069 16.4542 15.7938 17.201 15.4063C17.9478 15.0188 18.7978 14.8766 19.63 15.0001C20.4789 15.1259 21.2649 15.5215 21.8717 16.1284C22.4785 16.7352 22.8741 17.5211 23 18.3701Z" stroke="#681111" stroke-width="2" stroke-linecap="round" stroke-linejoin="round"/>
<path d="M24.5 13.5H24.51" stroke="#681111" stroke-width="2" stroke-linecap="round" stroke-linejoin="round"/>
</svg>
