<svg width="40" height="40" viewBox="0 0 40 40" fill="none" xmlns="http://www.w3.org/2000/svg">
<path fill-rule="evenodd" clip-rule="evenodd" d="M15.4616 2.90913C17.2504 -0.959787 22.7497 -0.959781 24.5384 2.90914L39.7208 35.7468C40.64 37.7349 39.188 40.0058 36.9978 40.0058H3.00232C0.812086 40.0058 -0.639879 37.7349 0.27928 35.7468L15.4616 2.90913ZM16.7967 3.88614C18.0234 1.1001 21.9763 1.1001 23.2031 3.88614L29.6093 18.4347C30.1913 19.7566 29.2232 21.2407 27.7789 21.2407H12.2209C10.7766 21.2407 9.80844 19.7566 10.3905 18.4347L16.7967 3.88614ZM20 30.7186C20.7646 30.7186 21.3845 30.1249 21.3845 29.3926C21.3845 28.6602 20.7646 28.0666 20 28.0666C19.2353 28.0666 18.6155 28.6602 18.6155 29.3926C18.6155 30.1249 19.2353 30.7186 20 30.7186Z" fill="#681111"/>
</svg>
