<svg width="45" height="52" viewBox="0 0 45 52" fill="none" xmlns="http://www.w3.org/2000/svg">
<path fill-rule="evenodd" clip-rule="evenodd" d="M25.7668 6.44828L22.5 3L19.2332 6.44828L1.23322 25.4483C-0.476016 27.2525 -0.399037 30.1007 1.40516 31.8099C3.20936 33.5192 6.05756 33.4422 7.7668 31.638L18 20.8363L18 47.0431C18 49.5284 20.0147 51.5431 22.5 51.5431C24.9853 51.5431 27 49.5284 27 47.0431L27 20.8362L37.2332 31.638C38.9425 33.4422 41.7907 33.5192 43.5949 31.8099C45.3991 30.1007 45.476 27.2525 43.7668 25.4483L25.7668 6.44828Z" fill="#681111"/>
<line x1="1.5" y1="1.5" x2="43.5" y2="1.5" stroke="#681111" stroke-width="3" stroke-linecap="round"/>
</svg>
