<svg width="40" height="40" viewBox="0 0 40 40" fill="none" xmlns="http://www.w3.org/2000/svg">
<path fill-rule="evenodd" clip-rule="evenodd" d="M37 20C37 29.3888 29.3888 37 20 37C10.6112 37 3 29.3888 3 20C3 10.6112 10.6112 3 20 3C29.3888 3 37 10.6112 37 20ZM40 20C40 31.0457 31.0457 40 20 40C8.9543 40 0 31.0457 0 20C0 8.9543 8.9543 0 20 0C31.0457 0 40 8.9543 40 20ZM20 7C21.1046 7 22 7.89543 22 9V18H31C32.1046 18 33 18.8954 33 20C33 21.1046 32.1046 22 31 22H22V31C22 32.1046 21.1046 33 20 33C18.8954 33 18 32.1046 18 31V22H9C7.89543 22 7 21.1046 7 20C7 18.8954 7.89543 18 9 18H18V9C18 7.89543 18.8954 7 20 7Z" fill="#681111"/>
</svg>
