<svg width="40" height="40" viewBox="0 0 40 40" fill="none" xmlns="http://www.w3.org/2000/svg">
<path fill-rule="evenodd" clip-rule="evenodd" d="M37 20C37 29.3888 29.3888 37 20 37C10.6112 37 3 29.3888 3 20C3 10.6112 10.6112 3 20 3C29.3888 3 37 10.6112 37 20ZM40 20C40 31.0457 31.0457 40 20 40C8.9543 40 0 31.0457 0 20C0 8.9543 8.9543 0 20 0C31.0457 0 40 8.9543 40 20ZM20 4C21.1046 4 22 4.89543 22 6V18H34C35.1046 18 36 18.8954 36 20C36 21.1046 35.1046 22 34 22H22V34C22 35.1046 21.1046 36 20 36C18.8954 36 18 35.1046 18 34V22H6C4.89543 22 4 21.1046 4 20C4 18.8954 4.89543 18 6 18H18V6C18 4.89543 18.8954 4 20 4Z" fill="#681111"/>
</svg>
