<svg width="40" height="40" viewBox="0 0 40 40" fill="none" xmlns="http://www.w3.org/2000/svg">
<path fill-rule="evenodd" clip-rule="evenodd" d="M38.3333 2.3809H26.8421C26.8421 1.06596 25.7761 0 24.4611 0H15.5388C14.2239 0 13.1579 1.06596 13.1579 2.3809H1.66666C0.746191 2.3809 0 3.12709 0 4.04756C0 4.96803 0.746192 5.71422 1.66667 5.71422H38.3333C39.2538 5.71422 40 4.96803 40 4.04756C40 3.12709 39.2538 2.3809 38.3333 2.3809ZM2.10529 6.66673H37.8948L34.6035 37.3203C34.4399 38.8444 33.1536 40 31.6207 40H8.37937C6.84648 40 5.56016 38.8444 5.39651 37.3203L2.10529 6.66673ZM10.0002 15.3384C10.0002 14.757 10.4715 14.2857 11.0528 14.2857C11.6342 14.2857 12.1054 14.757 12.1054 15.3384V31.8045C12.1054 32.3858 11.6342 32.8571 11.0528 32.8571C10.4715 32.8571 10.0002 32.3858 10.0002 31.8045V15.3384ZM28.9475 14.2857C28.3662 14.2857 27.8949 14.757 27.8949 15.3384V31.8045C27.8949 32.3858 28.3662 32.8571 28.9475 32.8571C29.5289 32.8571 30.0002 32.3858 30.0002 31.8045V15.3384C30.0002 14.757 29.5289 14.2857 28.9475 14.2857ZM18.9475 15.3384C18.9475 14.757 19.4188 14.2857 20.0002 14.2857C20.5815 14.2857 21.0528 14.757 21.0528 15.3384V31.8045C21.0528 32.3858 20.5815 32.8571 20.0002 32.8571C19.4188 32.8571 18.9475 32.3858 18.9475 31.8045V15.3384Z" fill="#681111"/>
</svg>
