<svg width="32" height="36" viewBox="0 0 32 36" fill="none" xmlns="http://www.w3.org/2000/svg">
<path fill-rule="evenodd" clip-rule="evenodd" d="M10.5263 2.10526C10.5263 0.942559 11.4689 0 12.6316 0H19.3684C20.5311 0 21.4737 0.942559 21.4737 2.10526H30.5263C31.3402 2.10526 32 2.76505 32 3.57895C32 4.39284 31.3402 5.05263 30.5263 5.05263H1.47368C0.659791 5.05263 0 4.39284 0 3.57895C0 2.76505 0.659791 2.10526 1.47368 2.10526H10.5263ZM1.68421 5.89474H30.3158L27.7159 32.6585C27.5665 34.1958 26.2744 35.3684 24.7299 35.3684H7.27006C5.72556 35.3684 4.43345 34.1958 4.28412 32.6585L1.68421 5.89474ZM8.00013 13.4737C8.00013 13.0086 8.37715 12.6316 8.84223 12.6316C9.30732 12.6316 9.68434 13.0086 9.68434 13.4737V28.2105C9.68434 28.6756 9.30732 29.0526 8.84223 29.0526C8.37715 29.0526 8.00013 28.6756 8.00013 28.2105V13.4737ZM23.158 12.6316C22.6929 12.6316 22.3159 13.0086 22.3159 13.4737V28.2105C22.3159 28.6756 22.6929 29.0526 23.158 29.0526C23.6231 29.0526 24.0001 28.6756 24.0001 28.2105V13.4737C24.0001 13.0086 23.6231 12.6316 23.158 12.6316ZM15.158 13.4737C15.158 13.0086 15.535 12.6316 16.0001 12.6316C16.4652 12.6316 16.8422 13.0086 16.8422 13.4737V28.2105C16.8422 28.6756 16.4652 29.0526 16.0001 29.0526C15.535 29.0526 15.158 28.6756 15.158 28.2105V13.4737Z" fill="#681111"/>
</svg>
