<svg width="79" height="97" viewBox="0 0 79 97" fill="none" xmlns="http://www.w3.org/2000/svg">
<path d="M12.6953 65.9688C10.1172 63.4427 8.0599 60.3958 6.52344 56.8281C5.01302 53.2344 4.25781 49.3281 4.25781 45.1094C4.25781 40.8646 4.97396 37.0625 6.40625 33.7031C7.86458 30.3177 9.86979 27.388 12.4219 24.9141C17.8906 19.6536 24.7526 17.0234 33.0078 17.0234C41.2109 17.0234 47.9297 19.6146 53.1641 24.7969C58.4766 30.0573 61.1328 36.8802 61.1328 45.2656C61.1328 53.625 58.4115 60.5 52.9688 65.8906C49.5573 69.224 45.3646 71.5286 40.3906 72.8047C37.9167 73.4297 35.0391 73.7422 31.7578 73.7422C28.5026 73.7422 25.1562 73.0781 21.7188 71.75C18.2812 70.3958 15.2734 68.4688 12.6953 65.9688ZM32.9688 19.875C31.5365 19.875 30.1953 19.9792 28.9453 20.1875V70.5781C30.1432 70.7865 31.4844 70.8906 32.9688 70.8906C39.9219 70.8906 45.7812 68.5729 50.5469 63.9375C55.5208 59.1198 58.0078 52.8958 58.0078 45.2656C58.0078 38 55.6771 31.9583 51.0156 27.1406C46.3021 22.2969 40.2865 19.875 32.9688 19.875Z" fill="#681111"/>
<path d="M43.6855 58.2793C43.3809 58.8887 42.9766 59.1934 42.4727 59.1934C41.9688 59.1934 41.7168 58.9355 41.7168 58.4199C41.7168 58.1035 41.8691 57.7578 42.1738 57.3828C42.7832 56.6562 43.3633 55.8184 43.9141 54.8691L44.8105 53.2695L34.3691 34.127H44.6172L49.6445 44.7266L54.1445 36.7285C54.4727 36.1191 54.7539 35.5039 54.9883 34.8828C55.2227 34.25 55.5332 33.9336 55.9199 33.9336C56.4004 33.9336 56.6406 34.1738 56.6406 34.6543C56.6406 34.9355 56.5352 35.2578 56.3242 35.6211L44.3008 57.0664C44.1719 57.3008 44.0664 57.4941 43.9844 57.6465L43.6855 58.2793ZM60.3145 57.7344C59.9043 57.5 59.5469 57.2539 59.2422 56.9961C58.9492 56.7383 58.8027 56.4629 58.8027 56.1699C58.8027 55.6074 59.043 55.3262 59.5234 55.3262C59.8398 55.3262 60.1914 55.502 60.5781 55.8535C60.9648 56.2051 61.3984 56.5156 61.8789 56.7852C62.3594 57.043 62.8809 57.2656 63.4434 57.4531C64.6035 57.8398 65.6758 58.0332 66.6602 58.0332C67.6445 58.0332 68.4004 57.9688 68.9277 57.8398C69.4668 57.7109 69.918 57.5352 70.2812 57.3125C71.0547 56.832 71.4414 56.2168 71.4414 55.4668C71.4414 54.7754 71.1074 54.0781 70.4395 53.375C69.877 52.7773 69.0801 52.0625 68.0488 51.2305L65.043 48.875C62.0312 46.5547 60.2559 44.4336 59.7168 42.5117C59.5293 41.8438 59.4355 41.0996 59.4355 40.2793C59.4355 39.459 59.6172 38.6504 59.9805 37.8535C60.3555 37.0566 60.9062 36.3594 61.6328 35.7617C63.1914 34.4609 65.3125 33.8105 67.9961 33.8105C69.3672 33.8105 70.5977 34.0156 71.6875 34.4258C72.7773 34.8242 73.5215 35.1816 73.9199 35.498C74.3184 35.8145 74.5176 36.1016 74.5176 36.3594C74.5176 36.8984 74.2949 37.168 73.8496 37.168C73.5918 37.168 73.3164 37.0391 73.0234 36.7812C72.7305 36.5234 72.4023 36.3008 72.0391 36.1133C71.6875 35.9141 71.2832 35.7383 70.8262 35.5859C69.8418 35.2578 68.875 35.0938 67.9258 35.0938C66.1797 35.0938 65.3066 35.668 65.3066 36.8164C65.3066 37.2969 65.4648 37.7422 65.7812 38.1523C66.3438 38.8672 67.4395 39.8926 69.0684 41.2285C70.709 42.5527 72.0215 43.7129 73.0059 44.709C74.002 45.7051 74.7578 46.6016 75.2734 47.3984C76.0938 48.6523 76.5039 49.959 76.5039 51.3184C76.5039 52.666 76.2637 53.8145 75.7832 54.7637C75.3145 55.7012 74.6523 56.5098 73.7969 57.1895C71.9922 58.6191 69.7539 59.334 67.082 59.334C64.4102 59.334 62.1543 58.8008 60.3145 57.7344Z" fill="#681111"/>
</svg>
