<svg width="188" height="73" viewBox="0 0 188 73" fill="none" xmlns="http://www.w3.org/2000/svg">
<path d="M7.19351 42.0758C4.9955 39.9043 3.24152 37.285 1.93159 34.218C0.643863 31.1287 0 27.7707 0 24.1441C0 20.495 0.61056 17.2266 1.83168 14.3387C3.075 11.4284 4.78457 8.90989 6.96039 6.78317C11.6228 2.26106 17.4731 0 24.5112 0C31.5049 0 37.2331 2.22747 41.6957 6.68243C46.225 11.2045 48.4896 17.0698 48.4896 24.2783C48.4896 31.4645 46.1695 37.3746 41.5292 42.0086C38.6207 44.8742 35.0462 46.8553 30.8055 47.9523C28.6964 48.4896 26.243 48.7582 23.4455 48.7582C20.6702 48.7582 17.8172 48.1873 14.8866 47.0456C11.9558 45.8815 9.39149 44.225 7.19351 42.0758ZM24.478 2.45134C23.2568 2.45134 22.1134 2.54089 21.0477 2.71998V46.0382C22.0689 46.2174 23.2124 46.3069 24.478 46.3069C30.4059 46.3069 35.4013 44.3144 39.4644 40.3296C43.705 36.1881 45.8253 30.8376 45.8253 24.2783C45.8253 18.0325 43.8382 12.8387 39.864 8.69721C35.8454 4.53331 30.7168 2.45134 24.478 2.45134ZM70.4698 46.7434C69.8925 47.9075 69.1265 48.4896 68.1719 48.4896C67.2172 48.4896 66.7398 47.9971 66.7398 47.012C66.7398 46.4076 67.0284 45.7472 67.6057 45.0308C68.7602 43.6429 69.8592 42.0422 70.9027 40.2289L72.6012 37.1731L52.819 0.60444H72.2348L81.7595 20.8532L90.285 5.57428C90.9065 4.41018 91.4394 3.23488 91.8835 2.04838C92.3277 0.839501 92.916 0.23506 93.6492 0.23506C94.5589 0.23506 95.0142 0.693987 95.0142 1.61184C95.0142 2.14912 94.8147 2.76475 94.4148 3.45875L71.6353 44.4264C71.3911 44.8742 71.1913 45.2435 71.0359 45.5345L70.4698 46.7434ZM101.974 45.7024C101.198 45.2547 100.52 44.7846 99.9428 44.2921C99.3878 43.7996 99.1107 43.2735 99.1107 42.7138C99.1107 41.6392 99.566 41.1019 100.476 41.1019C101.075 41.1019 101.742 41.4378 102.474 42.1094C103.206 42.781 104.028 43.3742 104.939 43.8891C105.849 44.3816 106.837 44.8069 107.902 45.1652C110.1 45.9039 112.132 46.2733 113.997 46.2733C115.862 46.2733 117.294 46.1501 118.293 45.9039C119.315 45.6576 120.169 45.3219 120.858 44.8965C122.323 43.9787 123.056 42.8034 123.056 41.3706C123.056 40.0498 122.423 38.7178 121.157 37.3746C120.091 36.2329 118.582 34.8672 116.628 33.2778L110.933 28.7781C105.227 24.3456 101.864 20.2935 100.842 16.6221C100.487 15.3461 100.309 13.9246 100.309 12.3574C100.309 10.7904 100.654 9.24566 101.342 7.72341C102.052 6.20111 103.096 4.86911 104.473 3.72739C107.425 1.24246 111.444 0 116.529 0C119.126 0 121.457 0.391767 123.522 1.1753C125.586 1.93645 126.996 2.61924 127.752 3.22369C128.506 3.82812 128.884 4.3766 128.884 4.86911C128.884 5.8989 128.462 6.41379 127.618 6.41379C127.129 6.41379 126.608 6.16754 126.053 5.67503C125.498 5.18252 124.876 4.75717 124.188 4.39898C123.522 4.01841 122.756 3.68261 121.89 3.39158C120.025 2.76475 118.194 2.45134 116.395 2.45134C113.087 2.45134 111.433 3.54829 111.433 5.74218C111.433 6.66004 111.732 7.51074 112.332 8.29427C113.398 9.65984 115.474 11.6187 118.559 14.1708C121.668 16.7005 124.155 18.9167 126.019 20.8196C127.907 22.7225 129.339 24.4351 130.315 25.9574C131.87 28.3527 132.647 30.8489 132.647 33.4457C132.647 36.0202 132.192 38.2141 131.281 40.0274C130.394 41.8184 129.139 43.363 127.518 44.6615C124.099 47.3926 119.859 48.7582 114.796 48.7582C109.735 48.7582 105.461 47.7396 101.974 45.7024Z" fill="#D48325"/>
<path d="M3.17383 65.2422C2.5293 64.6107 2.01497 63.849 1.63086 62.957C1.25326 62.0586 1.06445 61.082 1.06445 60.0273C1.06445 58.9661 1.24349 58.0156 1.60156 57.1758C1.96615 56.3294 2.46745 55.597 3.10547 54.9785C4.47266 53.6634 6.18815 53.0059 8.25195 53.0059C10.3027 53.0059 11.9824 53.6536 13.291 54.9492C14.6191 56.2643 15.2832 57.9701 15.2832 60.0664C15.2832 62.1562 14.6029 63.875 13.2422 65.2227C12.3893 66.056 11.3411 66.6322 10.0977 66.9512C9.47917 67.1074 8.75977 67.1855 7.93945 67.1855C7.12565 67.1855 6.28906 67.0195 5.42969 66.6875C4.57031 66.349 3.81836 65.8672 3.17383 65.2422ZM8.24219 53.7188C7.88411 53.7188 7.54883 53.7448 7.23633 53.7969V66.3945C7.53581 66.4466 7.87109 66.4727 8.24219 66.4727C9.98047 66.4727 11.4453 65.8932 12.6367 64.7344C13.8802 63.5299 14.502 61.974 14.502 60.0664C14.502 58.25 13.9193 56.7396 12.7539 55.5352C11.5755 54.3242 10.0716 53.7188 8.24219 53.7188ZM25.2637 57.6348C25.1009 57.5306 24.9251 57.4785 24.7363 57.4785C24.5475 57.4785 24.3522 57.5241 24.1504 57.6152C23.9486 57.6999 23.737 57.8203 23.5156 57.9766C23.0534 58.3086 22.627 58.7513 22.2363 59.3047V67H18.0371V56.5703H22.2363V58.2402C23.3496 57.0098 24.6094 56.3945 26.0156 56.3945C28.3138 56.3945 29.4629 57.5078 29.4629 59.7344V67H25.2637V57.6348ZM40.8105 66.5996C40.6413 66.9382 40.4167 67.1074 40.1367 67.1074C39.8568 67.1074 39.7168 66.9642 39.7168 66.6777C39.7168 66.502 39.8014 66.3099 39.9707 66.1016C40.3092 65.6979 40.6315 65.2324 40.9375 64.7051L41.4355 63.8164L35.6348 53.1816H41.3281L44.1211 59.0703L46.6211 54.627C46.8034 54.2884 46.9596 53.9466 47.0898 53.6016C47.2201 53.25 47.3926 53.0742 47.6074 53.0742C47.8743 53.0742 48.0078 53.2077 48.0078 53.4746C48.0078 53.6309 47.9492 53.8099 47.832 54.0117L41.1523 65.9258C41.0807 66.056 41.0221 66.1634 40.9766 66.248L40.8105 66.5996ZM49.1113 61.7266C49.1113 60.9453 49.2513 60.2357 49.5312 59.5977C49.8177 58.9531 50.2083 58.3932 50.7031 57.918C51.7708 56.9023 53.112 56.3945 54.7266 56.3945C56.3737 56.3945 57.7148 56.9219 58.75 57.9766C59.7396 58.9727 60.2344 60.2324 60.2344 61.7559C60.2344 63.2858 59.7266 64.5651 58.7109 65.5938C57.6628 66.6549 56.3216 67.1855 54.6875 67.1855C53.0924 67.1855 51.7708 66.681 50.7227 65.6719C49.6484 64.6302 49.1113 63.3151 49.1113 61.7266ZM54.4141 66.4531C54.4661 66.4596 54.5182 66.4629 54.5703 66.4629H54.707C56.0221 66.4629 57.1257 66.056 58.0176 65.2422C58.9681 64.3633 59.4434 63.2109 59.4434 61.7852C59.4434 60.3919 58.9974 59.2624 58.1055 58.3965C57.2266 57.5371 56.0905 57.1074 54.6973 57.1074H54.5508C54.5052 57.1074 54.4596 57.1107 54.4141 57.1172V66.4531ZM66.1621 67.1855C63.877 67.1855 62.7344 66.069 62.7344 63.8359V56.5703H66.9141V66.1309C66.9792 66.1634 67.0605 66.1797 67.1582 66.1797H67.4805C68.0013 66.1797 68.6198 65.8281 69.3359 65.125C69.5508 64.9102 69.7526 64.6758 69.9414 64.4219V56.5703H74.1406V67H69.9414V65.4961C68.8802 66.6224 67.6204 67.1855 66.1621 67.1855ZM77.334 56.5703H81.5332V59.6367C81.9824 58.5234 82.4642 57.7064 82.9785 57.1855C83.4993 56.6582 84.0202 56.3945 84.541 56.3945C84.834 56.3945 85.0651 56.4727 85.2344 56.6289C85.4102 56.7786 85.498 56.9479 85.498 57.1367C85.498 57.3255 85.472 57.4753 85.4199 57.5859C85.3678 57.6966 85.2995 57.791 85.2148 57.8691C85.0391 58.0319 84.873 58.1133 84.7168 58.1133C84.4694 58.1133 84.2871 58.0872 84.1699 58.0352C83.9681 57.944 83.7891 57.8984 83.6328 57.8984C83.4766 57.8984 83.278 58.0254 83.0371 58.2793C82.7962 58.5267 82.5651 58.8717 82.3438 59.3145C81.8034 60.3952 81.5332 61.5671 81.5332 62.8301V67H77.334V56.5703ZM91.2598 66.2969C91.0319 66.1667 90.8333 66.0299 90.6641 65.8867C90.5013 65.7435 90.4199 65.5905 90.4199 65.4277C90.4199 65.1152 90.5534 64.959 90.8203 64.959C90.9961 64.959 91.1914 65.0566 91.4062 65.252C91.6211 65.4473 91.862 65.6198 92.1289 65.7695C92.3958 65.9128 92.6855 66.0365 92.998 66.1406C93.6426 66.3555 94.2383 66.4629 94.7852 66.4629C95.332 66.4629 95.752 66.4271 96.0449 66.3555C96.3444 66.2839 96.5951 66.1862 96.7969 66.0625C97.2266 65.7956 97.4414 65.4538 97.4414 65.0371C97.4414 64.653 97.2559 64.2656 96.8848 63.875C96.5723 63.543 96.1296 63.1458 95.5566 62.6836L93.8867 61.375C92.2135 60.0859 91.2272 58.9076 90.9277 57.8398C90.8236 57.4688 90.7715 57.0553 90.7715 56.5996C90.7715 56.1439 90.8724 55.6947 91.0742 55.252C91.2826 54.8092 91.5885 54.4219 91.9922 54.0898C92.8581 53.3672 94.0365 53.0059 95.5273 53.0059C96.2891 53.0059 96.9727 53.1198 97.5781 53.3477C98.1836 53.569 98.597 53.7676 98.8184 53.9434C99.0397 54.1191 99.1504 54.2786 99.1504 54.4219C99.1504 54.7214 99.0267 54.8711 98.7793 54.8711C98.6361 54.8711 98.4831 54.7995 98.3203 54.6562C98.1576 54.513 97.9753 54.3893 97.7734 54.2852C97.5781 54.1745 97.3535 54.0768 97.0996 53.9922C96.5527 53.8099 96.0156 53.7188 95.4883 53.7188C94.5182 53.7188 94.0332 54.0378 94.0332 54.6758C94.0332 54.9427 94.1211 55.1901 94.2969 55.418C94.6094 55.8151 95.2181 56.3848 96.123 57.127C97.0345 57.8626 97.7637 58.5072 98.3105 59.0605C98.8639 59.6139 99.2839 60.112 99.5703 60.5547C100.026 61.2513 100.254 61.9772 100.254 62.7324C100.254 63.4811 100.12 64.1191 99.8535 64.6465C99.5931 65.1673 99.2253 65.6165 98.75 65.9941C97.7474 66.7884 96.5039 67.1855 95.0195 67.1855C93.5352 67.1855 92.2819 66.8893 91.2598 66.2969ZM110.82 56.3945C113.112 56.3945 114.258 57.5078 114.258 59.7344V67H110.059V57.498C109.941 57.4199 109.785 57.3809 109.59 57.3809C109.401 57.3809 109.202 57.4264 108.994 57.5176C108.786 57.6087 108.568 57.7357 108.34 57.8984C107.852 58.2565 107.419 58.7057 107.041 59.2461V67H102.842V53.1816H107.041V58.2207C108.154 57.0033 109.414 56.3945 110.82 56.3945ZM116.553 61.7266C116.553 60.9453 116.693 60.2357 116.973 59.5977C117.259 58.9531 117.65 58.3932 118.145 57.918C119.212 56.9023 120.553 56.3945 122.168 56.3945C123.815 56.3945 125.156 56.9219 126.191 57.9766C127.181 58.9727 127.676 60.2324 127.676 61.7559C127.676 63.2858 127.168 64.5651 126.152 65.5938C125.104 66.6549 123.763 67.1855 122.129 67.1855C120.534 67.1855 119.212 66.681 118.164 65.6719C117.09 64.6302 116.553 63.3151 116.553 61.7266ZM121.855 66.4531C121.908 66.4596 121.96 66.4629 122.012 66.4629H122.148C123.464 66.4629 124.567 66.056 125.459 65.2422C126.41 64.3633 126.885 63.2109 126.885 61.7852C126.885 60.3919 126.439 59.2624 125.547 58.3965C124.668 57.5371 123.532 57.1074 122.139 57.1074H121.992C121.947 57.1074 121.901 57.1107 121.855 57.1172V66.4531ZM133.604 67.1855C131.318 67.1855 130.176 66.069 130.176 63.8359V56.5703H134.355V66.1309C134.421 66.1634 134.502 66.1797 134.6 66.1797H134.922C135.443 66.1797 136.061 65.8281 136.777 65.125C136.992 64.9102 137.194 64.6758 137.383 64.4219V56.5703H141.582V67H137.383V65.4961C136.322 66.6224 135.062 67.1855 133.604 67.1855ZM144.775 53.1816H148.975V67H144.775V53.1816ZM159.57 66.4629C158.757 66.9447 157.894 67.1855 156.982 67.1855C156.077 67.1855 155.28 67.0521 154.59 66.7852C153.906 66.5117 153.32 66.1341 152.832 65.6523C151.816 64.6432 151.309 63.3314 151.309 61.7168C151.309 60.2194 151.81 58.9727 152.812 57.9766C153.88 56.9219 155.273 56.3945 156.992 56.3945C157.904 56.3945 158.763 56.5931 159.57 56.9902V53.1816H163.594V67H159.57V66.4629ZM156.797 57.1074C156.595 57.1074 156.403 57.1204 156.221 57.1465V66.4043C156.455 66.4434 156.709 66.4629 156.982 66.4629C157.887 66.4629 158.75 66.1764 159.57 65.6035V57.8594C158.691 57.3581 157.767 57.1074 156.797 57.1074ZM175.85 64.627C176.104 64.627 176.23 64.7441 176.23 64.9785C176.23 65.1543 176.117 65.3626 175.889 65.6035C174.86 66.6582 173.451 67.1855 171.66 67.1855C170.052 67.1855 168.698 66.7005 167.598 65.7305C166.458 64.7214 165.889 63.4453 165.889 61.9023C165.889 60.3268 166.403 59.0312 167.432 58.0156C168.519 56.9349 169.964 56.3945 171.768 56.3945C173.213 56.3945 174.427 56.834 175.41 57.7129C176.471 58.6569 177.002 59.8971 177.002 61.4336C177.002 61.6549 176.995 61.8893 176.982 62.1367H170.537V66.3262C170.98 66.4173 171.478 66.4629 172.031 66.4629C173.203 66.4629 174.202 66.0755 175.029 65.3008C175.199 65.1315 175.319 64.998 175.391 64.9004C175.54 64.7181 175.693 64.627 175.85 64.627ZM173.242 57.293C172.819 57.1693 172.34 57.1074 171.807 57.1074C171.273 57.1074 170.85 57.1432 170.537 57.2148V61.4238H173.242V57.293ZM179.482 56.5703H183.682V59.6367C184.131 58.5234 184.613 57.7064 185.127 57.1855C185.648 56.6582 186.169 56.3945 186.689 56.3945C186.982 56.3945 187.214 56.4727 187.383 56.6289C187.559 56.7786 187.646 56.9479 187.646 57.1367C187.646 57.3255 187.62 57.4753 187.568 57.5859C187.516 57.6966 187.448 57.791 187.363 57.8691C187.188 58.0319 187.021 58.1133 186.865 58.1133C186.618 58.1133 186.436 58.0872 186.318 58.0352C186.117 57.944 185.938 57.8984 185.781 57.8984C185.625 57.8984 185.426 58.0254 185.186 58.2793C184.945 58.5267 184.714 58.8717 184.492 59.3145C183.952 60.3952 183.682 61.5671 183.682 62.8301V67H179.482V56.5703Z" fill="#D48325"/>
</svg>
