<?xml version="1.0" encoding="UTF-8"?>
<svg id="Layer_1" data-name="Layer 1" xmlns="http://www.w3.org/2000/svg" viewBox="0 0 155.51 56.87">
  <defs>
    <style>
      .cls-1 {
        fill: #681313;
      }

      .cls-2 {
        fill: #fff;
      }
    </style>
  </defs>
  <path class="cls-1" d="m48.95,48.44c-2.53,2.58-5.57,4.64-9.14,6.17-3.59,1.51-7.5,2.27-11.72,2.27s-8.05-.72-11.41-2.15c-3.39-1.46-6.32-3.46-8.79-6.02C2.63,43.24,0,36.38,0,28.13S2.59,13.2,7.77,7.97C13.03,2.66,19.86,0,28.24,0s15.23,2.72,20.62,8.16c3.33,3.41,5.64,7.6,6.91,12.58.62,2.47.94,5.35.94,8.63s-.66,6.6-1.99,10.04c-1.35,3.44-3.28,6.45-5.78,9.02ZM2.85,27.96c0,1.43.1,2.77.31,4.02h50.39c.21-1.2.31-2.54.31-4.02,0-6.95-2.32-12.81-6.95-17.58-4.82-4.97-11.04-7.46-18.67-7.46s-13.31,2.33-18.12,6.99c-4.84,4.71-7.27,10.73-7.27,18.05Zm79.73,26.5c-.68,1.35-1.58,2.03-2.7,2.03s-1.68-.57-1.68-1.72c0-.7.34-1.47,1.02-2.3,1.35-1.61,2.64-3.48,3.87-5.59l1.99-3.55L61.87.78h22.77l11.17,23.55,10-17.77c.73-1.35,1.35-2.72,1.88-4.1.52-1.41,1.21-2.11,2.07-2.11,1.07,0,1.6.53,1.6,1.6,0,.62-.23,1.34-.7,2.15l-26.72,47.66c-.29.52-.52.95-.7,1.29l-.66,1.41Zm36.95-1.21c-.91-.52-1.71-1.07-2.38-1.64-.65-.57-.98-1.18-.98-1.84,0-1.25.53-1.88,1.6-1.88.7,0,1.49.39,2.34,1.17.86.78,1.82,1.47,2.89,2.07,1.07.57,2.23,1.07,3.48,1.48,2.58.86,4.96,1.29,7.15,1.29s3.87-.14,5.04-.43c1.2-.29,2.2-.68,3.01-1.17,1.72-1.07,2.58-2.43,2.58-4.1,0-1.54-.74-3.09-2.23-4.65-1.25-1.33-3.02-2.92-5.31-4.77l-6.68-5.23c-6.69-5.16-10.64-9.87-11.84-14.14-.42-1.48-.62-3.14-.62-4.96s.4-3.62,1.21-5.39c.83-1.77,2.06-3.32,3.67-4.65,3.46-2.89,8.18-4.34,14.14-4.34,3.05,0,5.78.46,8.2,1.37,2.42.89,4.07,1.68,4.96,2.38.88.7,1.33,1.34,1.33,1.91,0,1.2-.49,1.8-1.48,1.8-.57,0-1.19-.29-1.84-.86s-1.38-1.07-2.19-1.48c-.78-.44-1.68-.83-2.69-1.17-2.19-.73-4.34-1.09-6.45-1.09-3.88,0-5.82,1.28-5.82,3.83,0,1.07.35,2.06,1.06,2.97,1.25,1.59,3.68,3.87,7.3,6.84,3.65,2.94,6.56,5.52,8.75,7.73,2.21,2.21,3.89,4.21,5.04,5.98,1.82,2.79,2.74,5.69,2.74,8.71s-.53,5.55-1.6,7.66c-1.04,2.08-2.51,3.88-4.41,5.39-4.01,3.18-8.98,4.77-14.92,4.77s-10.95-1.18-15.04-3.55Z"/>
  <circle class="cls-2" cx="28.36" cy="38.92" r="2.05"/>
</svg>