<svg width="156" height="57" viewBox="0 0 156 57" fill="none" xmlns="http://www.w3.org/2000/svg">
<path d="M8.69531 48.9688C6.11719 46.4427 4.0599 43.3958 2.52344 39.8281C1.01302 36.2344 0.257812 32.3281 0.257812 28.1094C0.257812 23.8646 0.973958 20.0625 2.40625 16.7031C3.86458 13.3177 5.86979 10.388 8.42188 7.91406C13.8906 2.65365 20.7526 0.0234375 29.0078 0.0234375C37.2109 0.0234375 43.9297 2.61458 49.1641 7.79688C54.4766 13.0573 57.1328 19.8802 57.1328 28.2656C57.1328 36.625 54.4115 43.5 48.9688 48.8906C45.5573 52.224 41.3646 54.5286 36.3906 55.8047C33.9167 56.4297 31.0391 56.7422 27.7578 56.7422C24.5026 56.7422 21.1562 56.0781 17.7188 54.75C14.2812 53.3958 11.2734 51.4688 8.69531 48.9688ZM28.9688 2.875C27.5365 2.875 26.1953 2.97917 24.9453 3.1875V53.5781C26.1432 53.7865 27.4844 53.8906 28.9688 53.8906C35.9219 53.8906 41.7812 51.5729 46.5469 46.9375C51.5208 42.1198 54.0078 35.8958 54.0078 28.2656C54.0078 21 51.6771 14.9583 47.0156 10.1406C42.3021 5.29688 36.2865 2.875 28.9688 2.875ZM82.9141 54.3984C82.237 55.7526 81.3385 56.4297 80.2188 56.4297C79.099 56.4297 78.5391 55.8568 78.5391 54.7109C78.5391 54.0078 78.8776 53.2396 79.5547 52.4062C80.9089 50.7917 82.1979 48.9297 83.4219 46.8203L85.4141 43.2656L62.2109 0.726562H84.9844L96.1562 24.2812L106.156 6.50781C106.885 5.15365 107.51 3.78646 108.031 2.40625C108.552 1 109.242 0.296875 110.102 0.296875C111.169 0.296875 111.703 0.830729 111.703 1.89844C111.703 2.52344 111.469 3.23958 111 4.04688L84.2812 51.7031C83.9948 52.224 83.7604 52.6536 83.5781 52.9922L82.9141 54.3984ZM119.867 53.1875C118.956 52.6667 118.161 52.1198 117.484 51.5469C116.833 50.974 116.508 50.362 116.508 49.7109C116.508 48.4609 117.042 47.8359 118.109 47.8359C118.812 47.8359 119.594 48.2266 120.453 49.0078C121.312 49.7891 122.276 50.4792 123.344 51.0781C124.411 51.651 125.57 52.1458 126.82 52.5625C129.398 53.4219 131.781 53.8516 133.969 53.8516C136.156 53.8516 137.836 53.7083 139.008 53.4219C140.206 53.1354 141.208 52.7448 142.016 52.25C143.734 51.1823 144.594 49.8151 144.594 48.1484C144.594 46.612 143.852 45.0625 142.367 43.5C141.117 42.1719 139.346 40.5833 137.055 38.7344L130.375 33.5C123.682 28.3438 119.737 23.6302 118.539 19.3594C118.122 17.875 117.914 16.2214 117.914 14.3984C117.914 12.5755 118.318 10.7786 119.125 9.00781C119.958 7.23698 121.182 5.6875 122.797 4.35938C126.26 1.46875 130.974 0.0234375 136.938 0.0234375C139.984 0.0234375 142.719 0.479167 145.141 1.39062C147.562 2.27604 149.216 3.07031 150.102 3.77344C150.987 4.47656 151.43 5.11458 151.43 5.6875C151.43 6.88542 150.935 7.48438 149.945 7.48438C149.372 7.48438 148.76 7.19792 148.109 6.625C147.458 6.05208 146.729 5.55729 145.922 5.14062C145.141 4.69792 144.242 4.30729 143.227 3.96875C141.039 3.23958 138.891 2.875 136.781 2.875C132.901 2.875 130.961 4.15104 130.961 6.70312C130.961 7.77083 131.312 8.76042 132.016 9.67188C133.266 11.2604 135.701 13.5391 139.32 16.5078C142.966 19.4505 145.883 22.0286 148.07 24.2422C150.284 26.4557 151.964 28.4479 153.109 30.2188C154.932 33.0052 155.844 35.9089 155.844 38.9297C155.844 41.9245 155.31 44.4766 154.242 46.5859C153.201 48.6693 151.729 50.4661 149.828 51.9766C145.818 55.1536 140.844 56.7422 134.906 56.7422C128.969 56.7422 123.956 55.5573 119.867 53.1875Z" fill="#681111"/>
</svg>
