<svg width="698" height="188" viewBox="0 0 698 188" fill="none" xmlns="http://www.w3.org/2000/svg">
<path d="M60.6305 124.935V141H8.3895V54.3085H28.5005V124.935H60.6305ZM153.904 97.6245C153.904 103.892 152.813 109.723 150.632 115.117C148.49 120.512 145.455 125.213 141.528 129.219C137.601 133.186 132.861 136.299 127.308 138.56C121.794 140.822 115.666 141.952 108.922 141.952C102.179 141.952 96.0305 140.822 90.4772 138.56C84.9239 136.299 80.1639 133.186 76.1972 129.219C72.2702 125.213 69.2159 120.512 67.0342 115.117C64.8922 109.723 63.8212 103.892 63.8212 97.6245C63.8212 91.3572 64.8922 85.5262 67.0342 80.1315C69.2159 74.7368 72.2702 70.0562 76.1972 66.0895C80.1639 62.1228 84.9239 59.009 90.4772 56.748C96.0305 54.487 102.179 53.3565 108.922 53.3565C115.666 53.3565 121.794 54.5068 127.308 56.8075C132.861 59.0685 137.601 62.1823 141.528 66.149C145.455 70.1157 148.49 74.7963 150.632 80.191C152.813 85.5857 153.904 91.3968 153.904 97.6245ZM133.317 97.6245C133.317 93.3405 132.762 89.4928 131.651 86.0815C130.541 82.6305 128.934 79.715 126.832 77.335C124.769 74.955 122.23 73.1303 119.216 71.861C116.201 70.5917 112.77 69.957 108.922 69.957C105.035 69.957 101.564 70.5917 98.5097 71.861C95.495 73.1303 92.9365 74.955 90.8342 77.335C88.7715 79.715 87.1849 82.6305 86.0742 86.0815C84.9635 89.4928 84.4082 93.3405 84.4082 97.6245C84.4082 101.948 84.9635 105.835 86.0742 109.286C87.1849 112.698 88.7715 115.593 90.8342 117.973C92.9365 120.353 95.495 122.178 98.5097 123.447C101.564 124.677 105.035 125.292 108.922 125.292C112.77 125.292 116.201 124.677 119.216 123.447C122.23 122.178 124.769 120.353 126.832 117.973C128.934 115.593 130.541 112.698 131.651 109.286C132.762 105.835 133.317 101.948 133.317 97.6245ZM250.824 97.6245C250.824 103.892 249.733 109.723 247.552 115.117C245.41 120.512 242.375 125.213 238.448 129.219C234.521 133.186 229.781 136.299 224.228 138.56C218.714 140.822 212.585 141.952 205.842 141.952C199.099 141.952 192.95 140.822 187.397 138.56C181.844 136.299 177.084 133.186 173.117 129.219C169.19 125.213 166.136 120.512 163.954 115.117C161.812 109.723 160.741 103.892 160.741 97.6245C160.741 91.3572 161.812 85.5262 163.954 80.1315C166.136 74.7368 169.19 70.0562 173.117 66.0895C177.084 62.1228 181.844 59.009 187.397 56.748C192.95 54.487 199.099 53.3565 205.842 53.3565C212.585 53.3565 218.714 54.5068 224.228 56.8075C229.781 59.0685 234.521 62.1823 238.448 66.149C242.375 70.1157 245.41 74.7963 247.552 80.191C249.733 85.5857 250.824 91.3968 250.824 97.6245ZM230.237 97.6245C230.237 93.3405 229.682 89.4928 228.571 86.0815C227.46 82.6305 225.854 79.715 223.752 77.335C221.689 74.955 219.15 73.1303 216.136 71.861C213.121 70.5917 209.69 69.957 205.842 69.957C201.955 69.957 198.484 70.5917 195.43 71.861C192.415 73.1303 189.856 74.955 187.754 77.335C185.691 79.715 184.105 82.6305 182.994 86.0815C181.883 89.4928 181.328 93.3405 181.328 97.6245C181.328 101.948 181.883 105.835 182.994 109.286C184.105 112.698 185.691 115.593 187.754 117.973C189.856 120.353 192.415 122.178 195.43 123.447C198.484 124.677 201.955 125.292 205.842 125.292C209.69 125.292 213.121 124.677 216.136 123.447C219.15 122.178 221.689 120.353 223.752 117.973C225.854 115.593 227.46 112.698 228.571 109.286C229.682 105.835 230.237 101.948 230.237 97.6245ZM282.77 89.4135H285.983C288.958 89.4135 291.1 88.4813 292.409 86.617L311.925 58.295C313.075 56.7877 314.305 55.7563 315.614 55.201C316.963 54.606 318.629 54.3085 320.612 54.3085H338.105L312.401 89.354C310.576 91.7737 308.613 93.519 306.511 94.59C308.018 95.1453 309.386 95.9188 310.616 96.9105C311.846 97.9022 312.996 99.1913 314.067 100.778L340.247 141H322.278C321.128 141 320.136 140.921 319.303 140.762C318.51 140.603 317.816 140.365 317.221 140.048C316.626 139.731 316.11 139.354 315.674 138.917C315.237 138.441 314.821 137.906 314.424 137.311L294.789 107.144C294.075 106.034 293.163 105.26 292.052 104.824C290.981 104.348 289.513 104.11 287.649 104.11H282.77V141H262.659V54.3085H282.77V89.4135ZM380.952 125.827C383.609 125.827 385.771 125.49 387.437 124.816C389.143 124.142 390.472 123.269 391.424 122.198C392.376 121.127 393.03 119.917 393.387 118.568C393.744 117.22 393.923 115.851 393.923 114.463C393.923 112.876 393.704 111.448 393.268 110.179C392.871 108.91 392.157 107.839 391.126 106.966C390.134 106.093 388.806 105.419 387.14 104.943C385.474 104.467 383.371 104.229 380.833 104.229H366.791V125.827H380.952ZM366.791 69.362V90.782H377.263C379.484 90.782 381.487 90.6233 383.272 90.306C385.057 89.9887 386.564 89.4333 387.794 88.64C389.063 87.8467 390.015 86.7558 390.65 85.3675C391.324 83.9792 391.662 82.2338 391.662 80.1315C391.662 78.0688 391.404 76.3632 390.888 75.0145C390.372 73.6262 389.579 72.5155 388.508 71.6825C387.437 70.8495 386.069 70.2545 384.403 69.8975C382.776 69.5405 380.833 69.362 378.572 69.362H366.791ZM378.572 54.3085C384.561 54.3085 389.658 54.8638 393.863 55.9745C398.068 57.0852 401.499 58.652 404.157 60.675C406.814 62.698 408.738 65.1573 409.928 68.053C411.158 70.9487 411.773 74.1815 411.773 77.7515C411.773 79.6952 411.495 81.5793 410.94 83.404C410.384 85.189 409.512 86.8748 408.322 88.4615C407.132 90.0085 405.604 91.4365 403.74 92.7455C401.876 94.0545 399.635 95.185 397.017 96.137C402.729 97.5253 406.953 99.7665 409.69 102.86C412.427 105.954 413.796 109.961 413.796 114.879C413.796 118.568 413.082 122 411.654 125.173C410.226 128.346 408.123 131.123 405.347 133.503C402.61 135.843 399.218 137.688 395.172 139.037C391.126 140.346 386.505 141 381.309 141H346.68V54.3085H378.572ZM511.485 97.6245C511.485 103.892 510.394 109.723 508.213 115.117C506.071 120.512 503.036 125.213 499.109 129.219C495.182 133.186 490.442 136.299 484.889 138.56C479.375 140.822 473.247 141.952 466.503 141.952C459.76 141.952 453.612 140.822 448.058 138.56C442.505 136.299 437.745 133.186 433.778 129.219C429.851 125.213 426.797 120.512 424.615 115.117C422.473 109.723 421.402 103.892 421.402 97.6245C421.402 91.3572 422.473 85.5262 424.615 80.1315C426.797 74.7368 429.851 70.0562 433.778 66.0895C437.745 62.1228 442.505 59.009 448.058 56.748C453.612 54.487 459.76 53.3565 466.503 53.3565C473.247 53.3565 479.375 54.5068 484.889 56.8075C490.442 59.0685 495.182 62.1823 499.109 66.149C503.036 70.1157 506.071 74.7963 508.213 80.191C510.394 85.5857 511.485 91.3968 511.485 97.6245ZM490.898 97.6245C490.898 93.3405 490.343 89.4928 489.232 86.0815C488.122 82.6305 486.515 79.715 484.413 77.335C482.35 74.955 479.811 73.1303 476.797 71.861C473.782 70.5917 470.351 69.957 466.503 69.957C462.616 69.957 459.145 70.5917 456.091 71.861C453.076 73.1303 450.518 74.955 448.415 77.335C446.353 79.715 444.766 82.6305 443.655 86.0815C442.545 89.4928 441.989 93.3405 441.989 97.6245C441.989 101.948 442.545 105.835 443.655 109.286C444.766 112.698 446.353 115.593 448.415 117.973C450.518 120.353 453.076 122.178 456.091 123.447C459.145 124.677 462.616 125.292 466.503 125.292C470.351 125.292 473.782 124.677 476.797 123.447C479.811 122.178 482.35 120.353 484.413 117.973C486.515 115.593 488.122 112.698 489.232 109.286C490.343 105.835 490.898 101.948 490.898 97.6245ZM608.405 97.6245C608.405 103.892 607.314 109.723 605.133 115.117C602.991 120.512 599.956 125.213 596.029 129.219C592.102 133.186 587.362 136.299 581.809 138.56C576.295 140.822 570.167 141.952 563.423 141.952C556.68 141.952 550.531 140.822 544.978 138.56C539.425 136.299 534.665 133.186 530.698 129.219C526.771 125.213 523.717 120.512 521.535 115.117C519.393 109.723 518.322 103.892 518.322 97.6245C518.322 91.3572 519.393 85.5262 521.535 80.1315C523.717 74.7368 526.771 70.0562 530.698 66.0895C534.665 62.1228 539.425 59.009 544.978 56.748C550.531 54.487 556.68 53.3565 563.423 53.3565C570.167 53.3565 576.295 54.5068 581.809 56.8075C587.362 59.0685 592.102 62.1823 596.029 66.149C599.956 70.1157 602.991 74.7963 605.133 80.191C607.314 85.5857 608.405 91.3968 608.405 97.6245ZM587.818 97.6245C587.818 93.3405 587.263 89.4928 586.152 86.0815C585.041 82.6305 583.435 79.715 581.333 77.335C579.27 74.955 576.731 73.1303 573.717 71.861C570.702 70.5917 567.271 69.957 563.423 69.957C559.536 69.957 556.065 70.5917 553.011 71.861C549.996 73.1303 547.437 74.955 545.335 77.335C543.272 79.715 541.686 82.6305 540.575 86.0815C539.464 89.4928 538.909 93.3405 538.909 97.6245C538.909 101.948 539.464 105.835 540.575 109.286C541.686 112.698 543.272 115.593 545.335 117.973C547.437 120.353 549.996 122.178 553.011 123.447C556.065 124.677 559.536 125.292 563.423 125.292C567.271 125.292 570.702 124.677 573.717 123.447C576.731 122.178 579.27 120.353 581.333 117.973C583.435 115.593 585.041 112.698 586.152 109.286C587.263 105.835 587.818 101.948 587.818 97.6245ZM640.351 89.4135H643.564C646.539 89.4135 648.681 88.4813 649.99 86.617L669.506 58.295C670.656 56.7877 671.886 55.7563 673.195 55.201C674.544 54.606 676.21 54.3085 678.193 54.3085H695.686L669.982 89.354C668.157 91.7737 666.194 93.519 664.092 94.59C665.599 95.1453 666.967 95.9188 668.197 96.9105C669.427 97.9022 670.577 99.1913 671.648 100.778L697.828 141H679.859C678.709 141 677.717 140.921 676.884 140.762C676.091 140.603 675.397 140.365 674.802 140.048C674.207 139.731 673.691 139.354 673.255 138.917C672.818 138.441 672.402 137.906 672.005 137.311L652.37 107.144C651.656 106.034 650.744 105.26 649.633 104.824C648.562 104.348 647.094 104.11 645.23 104.11H640.351V141H620.24V54.3085H640.351V89.4135Z" fill="#681111"/>
<path d="M69.688 43.944C70.152 43.944 70.52 44.08 70.792 44.352C71.064 44.624 71.2 44.976 71.2 45.408V48H48.256V46.536C48.256 46.232 48.32 45.92 48.448 45.6C48.576 45.28 48.776 44.984 49.048 44.712L60.064 33.648C60.976 32.72 61.808 31.832 62.56 30.984C63.312 30.12 63.952 29.256 64.48 28.392C65.008 27.528 65.416 26.656 65.704 25.776C65.992 24.88 66.136 23.928 66.136 22.92C66.136 21.912 65.976 21.032 65.656 20.28C65.336 19.512 64.896 18.88 64.336 18.384C63.792 17.888 63.144 17.52 62.392 17.28C61.64 17.024 60.832 16.896 59.968 16.896C59.088 16.896 58.28 17.024 57.544 17.28C56.808 17.536 56.152 17.896 55.576 18.36C55.016 18.808 54.544 19.344 54.16 19.968C53.776 20.592 53.504 21.28 53.344 22.032C53.152 22.592 52.888 22.968 52.552 23.16C52.232 23.336 51.776 23.384 51.184 23.304L48.952 22.92C49.176 21.352 49.608 19.968 50.248 18.768C50.904 17.552 51.72 16.536 52.696 15.72C53.688 14.904 54.816 14.288 56.08 13.872C57.344 13.44 58.712 13.224 60.184 13.224C61.64 13.224 63 13.44 64.264 13.872C65.528 14.304 66.624 14.936 67.552 15.768C68.48 16.584 69.208 17.584 69.736 18.768C70.264 19.952 70.528 21.296 70.528 22.8C70.528 24.08 70.336 25.272 69.952 26.376C69.568 27.464 69.048 28.504 68.392 29.496C67.736 30.488 66.976 31.456 66.112 32.4C65.264 33.344 64.36 34.296 63.4 35.256L54.328 44.52C54.968 44.344 55.616 44.208 56.272 44.112C56.928 44 57.56 43.944 58.168 43.944H69.688ZM100.244 30.816C100.244 33.824 99.9158 36.432 99.2598 38.64C98.6198 40.832 97.7398 42.648 96.6198 44.088C95.4998 45.528 94.1718 46.6 92.6358 47.304C91.1158 48.008 89.4838 48.36 87.7398 48.36C85.9798 48.36 84.3398 48.008 82.8198 47.304C81.3158 46.6 80.0038 45.528 78.8838 44.088C77.7638 42.648 76.8838 40.832 76.2438 38.64C75.6038 36.432 75.2838 33.824 75.2838 30.816C75.2838 27.808 75.6038 25.2 76.2438 22.992C76.8838 20.784 77.7638 18.96 78.8838 17.52C80.0038 16.064 81.3158 14.984 82.8198 14.28C84.3398 13.576 85.9798 13.224 87.7398 13.224C89.4838 13.224 91.1158 13.576 92.6358 14.28C94.1718 14.984 95.4998 16.064 96.6198 17.52C97.7398 18.96 98.6198 20.784 99.2598 22.992C99.9158 25.2 100.244 27.808 100.244 30.816ZM95.8038 30.816C95.8038 28.192 95.5798 25.992 95.1318 24.216C94.6998 22.424 94.1078 20.984 93.3558 19.896C92.6198 18.808 91.7638 18.032 90.7878 17.568C89.8118 17.088 88.7958 16.848 87.7398 16.848C86.6838 16.848 85.6678 17.088 84.6918 17.568C83.7158 18.032 82.8598 18.808 82.1238 19.896C81.3878 20.984 80.7958 22.424 80.3478 24.216C79.9158 25.992 79.6998 28.192 79.6998 30.816C79.6998 33.44 79.9158 35.64 80.3478 37.416C80.7958 39.192 81.3878 40.624 82.1238 41.712C82.8598 42.8 83.7158 43.584 84.6918 44.064C85.6678 44.528 86.6838 44.76 87.7398 44.76C88.7958 44.76 89.8118 44.528 90.7878 44.064C91.7638 43.584 92.6198 42.8 93.3558 41.712C94.1078 40.624 94.6998 39.192 95.1318 37.416C95.5798 35.64 95.8038 33.44 95.8038 30.816ZM125.376 43.944C125.84 43.944 126.208 44.08 126.479 44.352C126.752 44.624 126.888 44.976 126.888 45.408V48H103.944V46.536C103.944 46.232 104.008 45.92 104.136 45.6C104.264 45.28 104.464 44.984 104.736 44.712L115.752 33.648C116.664 32.72 117.496 31.832 118.248 30.984C119 30.12 119.64 29.256 120.168 28.392C120.696 27.528 121.104 26.656 121.392 25.776C121.68 24.88 121.824 23.928 121.824 22.92C121.824 21.912 121.664 21.032 121.344 20.28C121.024 19.512 120.584 18.88 120.024 18.384C119.48 17.888 118.832 17.52 118.08 17.28C117.328 17.024 116.52 16.896 115.656 16.896C114.776 16.896 113.968 17.024 113.232 17.28C112.496 17.536 111.84 17.896 111.264 18.36C110.704 18.808 110.232 19.344 109.848 19.968C109.464 20.592 109.192 21.28 109.032 22.032C108.84 22.592 108.576 22.968 108.24 23.16C107.92 23.336 107.464 23.384 106.872 23.304L104.64 22.92C104.864 21.352 105.296 19.968 105.936 18.768C106.592 17.552 107.408 16.536 108.384 15.72C109.376 14.904 110.504 14.288 111.768 13.872C113.032 13.44 114.4 13.224 115.872 13.224C117.328 13.224 118.688 13.44 119.952 13.872C121.216 14.304 122.312 14.936 123.24 15.768C124.168 16.584 124.896 17.584 125.424 18.768C125.952 19.952 126.216 21.296 126.216 22.8C126.216 24.08 126.024 25.272 125.64 26.376C125.256 27.464 124.736 28.504 124.08 29.496C123.424 30.488 122.664 31.456 121.8 32.4C120.952 33.344 120.048 34.296 119.088 35.256L110.016 44.52C110.656 44.344 111.304 44.208 111.96 44.112C112.616 44 113.248 43.944 113.856 43.944H125.376ZM132.651 22.92C132.875 21.352 133.307 19.968 133.947 18.768C134.587 17.552 135.395 16.536 136.371 15.72C137.363 14.904 138.491 14.288 139.755 13.872C141.035 13.44 142.411 13.224 143.883 13.224C145.339 13.224 146.683 13.432 147.915 13.848C149.147 14.264 150.203 14.856 151.083 15.624C151.979 16.392 152.675 17.32 153.171 18.408C153.667 19.496 153.915 20.704 153.915 22.032C153.915 23.12 153.771 24.096 153.483 24.96C153.211 25.808 152.811 26.552 152.283 27.192C151.771 27.832 151.147 28.376 150.411 28.824C149.675 29.272 148.851 29.64 147.939 29.928C150.179 30.504 151.859 31.496 152.979 32.904C154.115 34.296 154.683 36.04 154.683 38.136C154.683 39.72 154.379 41.144 153.771 42.408C153.179 43.672 152.363 44.752 151.323 45.648C150.283 46.528 149.067 47.208 147.675 47.688C146.299 48.152 144.819 48.384 143.235 48.384C141.411 48.384 139.851 48.16 138.555 47.712C137.259 47.248 136.163 46.616 135.267 45.816C134.371 45.016 133.635 44.072 133.059 42.984C132.483 41.88 131.995 40.688 131.595 39.408L133.443 38.64C133.923 38.432 134.387 38.376 134.835 38.472C135.299 38.568 135.635 38.832 135.843 39.264C136.051 39.712 136.307 40.248 136.611 40.872C136.931 41.496 137.363 42.096 137.907 42.672C138.451 43.248 139.139 43.736 139.971 44.136C140.819 44.536 141.891 44.736 143.187 44.736C144.387 44.736 145.435 44.544 146.331 44.16C147.243 43.76 147.995 43.248 148.587 42.624C149.195 42 149.651 41.304 149.955 40.536C150.259 39.768 150.411 39.008 150.411 38.256C150.411 37.328 150.291 36.48 150.051 35.712C149.811 34.944 149.363 34.28 148.707 33.72C148.051 33.16 147.147 32.72 145.995 32.4C144.859 32.08 143.395 31.92 141.603 31.92V28.824C143.075 28.808 144.323 28.648 145.347 28.344C146.387 28.04 147.227 27.624 147.867 27.096C148.523 26.568 148.995 25.936 149.283 25.2C149.587 24.464 149.739 23.648 149.739 22.752C149.739 21.76 149.579 20.896 149.259 20.16C148.955 19.424 148.531 18.816 147.987 18.336C147.443 17.856 146.795 17.496 146.043 17.256C145.307 17.016 144.507 16.896 143.643 16.896C142.779 16.896 141.971 17.024 141.219 17.28C140.483 17.536 139.827 17.896 139.251 18.36C138.691 18.808 138.219 19.344 137.835 19.968C137.451 20.592 137.179 21.28 137.019 22.032C136.811 22.592 136.547 22.968 136.227 23.16C135.923 23.336 135.475 23.384 134.883 23.304L132.651 22.92ZM178.704 17.4V29.424H192.84V33.216H178.704V48H174.048V13.608H195.24V17.4H178.704ZM200.33 48.504C200.122 49.064 199.794 49.48 199.346 49.752C198.914 50.024 198.466 50.16 198.002 50.16H196.202L210.626 14.232C210.818 13.72 211.106 13.328 211.49 13.056C211.89 12.784 212.346 12.648 212.858 12.648H214.682L200.33 48.504ZM265.257 13.608L254.529 48H250.353L241.641 21.768C241.561 21.512 241.481 21.24 241.401 20.952C241.337 20.664 241.265 20.36 241.185 20.04C241.105 20.36 241.025 20.664 240.945 20.952C240.865 21.24 240.785 21.512 240.705 21.768L231.945 48H227.769L217.041 13.608H220.905C221.321 13.608 221.665 13.712 221.937 13.92C222.225 14.128 222.409 14.392 222.489 14.712L229.593 38.616C229.705 39.048 229.809 39.512 229.905 40.008C230.017 40.504 230.121 41.032 230.217 41.592C230.329 41.032 230.441 40.504 230.553 40.008C230.681 39.496 230.817 39.032 230.961 38.616L239.049 14.712C239.145 14.44 239.329 14.192 239.601 13.968C239.889 13.728 240.233 13.608 240.633 13.608H241.977C242.393 13.608 242.729 13.712 242.985 13.92C243.241 14.128 243.433 14.392 243.561 14.712L251.625 38.616C251.769 39.032 251.897 39.48 252.009 39.96C252.137 40.44 252.257 40.944 252.369 41.472C252.449 40.944 252.537 40.44 252.633 39.96C252.729 39.48 252.833 39.032 252.945 38.616L260.073 14.712C260.153 14.424 260.329 14.168 260.601 13.944C260.889 13.72 261.233 13.608 261.633 13.608H265.257Z" fill="black"/>
<path d="M283.78 179.08C283.993 179.08 284.18 179.167 284.34 179.34L285.88 181C284.707 182.36 283.28 183.42 281.6 184.18C279.933 184.94 277.913 185.32 275.54 185.32C273.487 185.32 271.62 184.967 269.94 184.26C268.26 183.54 266.827 182.54 265.64 181.26C264.453 179.967 263.533 178.42 262.88 176.62C262.227 174.82 261.9 172.84 261.9 170.68C261.9 168.52 262.24 166.54 262.92 164.74C263.6 162.94 264.553 161.393 265.78 160.1C267.02 158.807 268.5 157.807 270.22 157.1C271.94 156.38 273.84 156.02 275.92 156.02C277.96 156.02 279.76 156.347 281.32 157C282.88 157.653 284.253 158.54 285.44 159.66L284.16 161.44C284.08 161.573 283.973 161.687 283.84 161.78C283.72 161.86 283.553 161.9 283.34 161.9C283.1 161.9 282.807 161.773 282.46 161.52C282.113 161.253 281.66 160.96 281.1 160.64C280.54 160.32 279.84 160.033 279 159.78C278.16 159.513 277.127 159.38 275.9 159.38C274.42 159.38 273.067 159.64 271.84 160.16C270.613 160.667 269.553 161.407 268.66 162.38C267.78 163.353 267.093 164.54 266.6 165.94C266.107 167.34 265.86 168.92 265.86 170.68C265.86 172.467 266.113 174.06 266.62 175.46C267.14 176.86 267.84 178.047 268.72 179.02C269.613 179.98 270.66 180.713 271.86 181.22C273.073 181.727 274.38 181.98 275.78 181.98C276.633 181.98 277.4 181.933 278.08 181.84C278.773 181.733 279.407 181.573 279.98 181.36C280.567 181.147 281.107 180.88 281.6 180.56C282.107 180.227 282.607 179.833 283.1 179.38C283.327 179.18 283.553 179.08 283.78 179.08ZM297.688 164.42C299.168 164.42 300.501 164.667 301.688 165.16C302.875 165.653 303.888 166.353 304.728 167.26C305.568 168.167 306.208 169.267 306.648 170.56C307.101 171.84 307.328 173.273 307.328 174.86C307.328 176.46 307.101 177.9 306.648 179.18C306.208 180.46 305.568 181.553 304.728 182.46C303.888 183.367 302.875 184.067 301.688 184.56C300.501 185.04 299.168 185.28 297.688 185.28C296.195 185.28 294.848 185.04 293.648 184.56C292.461 184.067 291.448 183.367 290.608 182.46C289.768 181.553 289.121 180.46 288.668 179.18C288.228 177.9 288.008 176.46 288.008 174.86C288.008 173.273 288.228 171.84 288.668 170.56C289.121 169.267 289.768 168.167 290.608 167.26C291.448 166.353 292.461 165.653 293.648 165.16C294.848 164.667 296.195 164.42 297.688 164.42ZM297.688 182.5C299.688 182.5 301.181 181.833 302.168 180.5C303.155 179.153 303.648 177.28 303.648 174.88C303.648 172.467 303.155 170.587 302.168 169.24C301.181 167.893 299.688 167.22 297.688 167.22C296.675 167.22 295.788 167.393 295.028 167.74C294.281 168.087 293.655 168.587 293.148 169.24C292.655 169.893 292.281 170.7 292.028 171.66C291.788 172.607 291.668 173.68 291.668 174.88C291.668 177.28 292.161 179.153 293.148 180.5C294.148 181.833 295.661 182.5 297.688 182.5ZM315.523 155.54V185H311.963V155.54H315.523ZM329.837 164.42C331.317 164.42 332.65 164.667 333.837 165.16C335.023 165.653 336.037 166.353 336.877 167.26C337.717 168.167 338.357 169.267 338.797 170.56C339.25 171.84 339.477 173.273 339.477 174.86C339.477 176.46 339.25 177.9 338.797 179.18C338.357 180.46 337.717 181.553 336.877 182.46C336.037 183.367 335.023 184.067 333.837 184.56C332.65 185.04 331.317 185.28 329.837 185.28C328.343 185.28 326.997 185.04 325.797 184.56C324.61 184.067 323.597 183.367 322.757 182.46C321.917 181.553 321.27 180.46 320.817 179.18C320.377 177.9 320.157 176.46 320.157 174.86C320.157 173.273 320.377 171.84 320.817 170.56C321.27 169.267 321.917 168.167 322.757 167.26C323.597 166.353 324.61 165.653 325.797 165.16C326.997 164.667 328.343 164.42 329.837 164.42ZM329.837 182.5C331.837 182.5 333.33 181.833 334.317 180.5C335.303 179.153 335.797 177.28 335.797 174.88C335.797 172.467 335.303 170.587 334.317 169.24C333.33 167.893 331.837 167.22 329.837 167.22C328.823 167.22 327.937 167.393 327.177 167.74C326.43 168.087 325.803 168.587 325.297 169.24C324.803 169.893 324.43 170.7 324.177 171.66C323.937 172.607 323.817 173.68 323.817 174.88C323.817 177.28 324.31 179.153 325.297 180.5C326.297 181.833 327.81 182.5 329.837 182.5ZM347.372 168.8C348.012 167.413 348.799 166.333 349.732 165.56C350.665 164.773 351.805 164.38 353.152 164.38C353.579 164.38 353.985 164.427 354.372 164.52C354.772 164.613 355.125 164.76 355.432 164.96L355.172 167.62C355.092 167.953 354.892 168.12 354.572 168.12C354.385 168.12 354.112 168.08 353.752 168C353.392 167.92 352.985 167.88 352.532 167.88C351.892 167.88 351.319 167.973 350.812 168.16C350.319 168.347 349.872 168.627 349.472 169C349.085 169.36 348.732 169.813 348.412 170.36C348.105 170.893 347.825 171.507 347.572 172.2V185H343.992V164.74H346.032C346.419 164.74 346.685 164.813 346.832 164.96C346.979 165.107 347.079 165.36 347.132 165.72L347.372 168.8ZM395.257 170.68C395.257 172.827 394.917 174.8 394.237 176.6C393.557 178.387 392.597 179.927 391.357 181.22C390.117 182.513 388.624 183.52 386.877 184.24C385.144 184.947 383.224 185.3 381.117 185.3C379.011 185.3 377.091 184.947 375.357 184.24C373.624 183.52 372.137 182.513 370.897 181.22C369.657 179.927 368.697 178.387 368.017 176.6C367.337 174.8 366.997 172.827 366.997 170.68C366.997 168.533 367.337 166.567 368.017 164.78C368.697 162.98 369.657 161.433 370.897 160.14C372.137 158.833 373.624 157.82 375.357 157.1C377.091 156.38 379.011 156.02 381.117 156.02C383.224 156.02 385.144 156.38 386.877 157.1C388.624 157.82 390.117 158.833 391.357 160.14C392.597 161.433 393.557 162.98 394.237 164.78C394.917 166.567 395.257 168.533 395.257 170.68ZM391.277 170.68C391.277 168.92 391.037 167.34 390.557 165.94C390.077 164.54 389.397 163.36 388.517 162.4C387.637 161.427 386.571 160.68 385.317 160.16C384.064 159.64 382.664 159.38 381.117 159.38C379.584 159.38 378.191 159.64 376.937 160.16C375.684 160.68 374.611 161.427 373.717 162.4C372.837 163.36 372.157 164.54 371.677 165.94C371.197 167.34 370.957 168.92 370.957 170.68C370.957 172.44 371.197 174.02 371.677 175.42C372.157 176.807 372.837 177.987 373.717 178.96C374.611 179.92 375.684 180.66 376.937 181.18C378.191 181.687 379.584 181.94 381.117 181.94C382.664 181.94 384.064 181.687 385.317 181.18C386.571 180.66 387.637 179.92 388.517 178.96C389.397 177.987 390.077 176.807 390.557 175.42C391.037 174.02 391.277 172.44 391.277 170.68ZM402.938 167.68C403.378 167.187 403.844 166.74 404.338 166.34C404.831 165.94 405.351 165.6 405.898 165.32C406.458 165.027 407.044 164.807 407.658 164.66C408.284 164.5 408.958 164.42 409.678 164.42C410.784 164.42 411.758 164.607 412.598 164.98C413.451 165.34 414.158 165.86 414.718 166.54C415.291 167.207 415.724 168.013 416.018 168.96C416.311 169.907 416.458 170.953 416.458 172.1V185H412.878V172.1C412.878 170.567 412.524 169.38 411.818 168.54C411.124 167.687 410.064 167.26 408.638 167.26C407.584 167.26 406.598 167.513 405.678 168.02C404.771 168.527 403.931 169.213 403.158 170.08V185H399.578V164.74H401.718C402.224 164.74 402.538 164.987 402.658 165.48L402.938 167.68ZM442.154 173.58V185H438.274V173.58L427.774 156.34H431.174C431.521 156.34 431.794 156.427 431.994 156.6C432.194 156.76 432.368 156.973 432.514 157.24L439.074 168.38C439.314 168.847 439.534 169.287 439.734 169.7C439.934 170.1 440.108 170.507 440.254 170.92C440.401 170.507 440.568 170.1 440.754 169.7C440.941 169.287 441.148 168.847 441.374 168.38L447.914 157.24C448.034 157.013 448.201 156.807 448.414 156.62C448.628 156.433 448.901 156.34 449.234 156.34H452.654L442.154 173.58ZM459.68 164.42C461.16 164.42 462.494 164.667 463.68 165.16C464.867 165.653 465.88 166.353 466.72 167.26C467.56 168.167 468.2 169.267 468.64 170.56C469.094 171.84 469.32 173.273 469.32 174.86C469.32 176.46 469.094 177.9 468.64 179.18C468.2 180.46 467.56 181.553 466.72 182.46C465.88 183.367 464.867 184.067 463.68 184.56C462.494 185.04 461.16 185.28 459.68 185.28C458.187 185.28 456.84 185.04 455.64 184.56C454.454 184.067 453.44 183.367 452.6 182.46C451.76 181.553 451.114 180.46 450.66 179.18C450.22 177.9 450 176.46 450 174.86C450 173.273 450.22 171.84 450.66 170.56C451.114 169.267 451.76 168.167 452.6 167.26C453.44 166.353 454.454 165.653 455.64 165.16C456.84 164.667 458.187 164.42 459.68 164.42ZM459.68 182.5C461.68 182.5 463.174 181.833 464.16 180.5C465.147 179.153 465.64 177.28 465.64 174.88C465.64 172.467 465.147 170.587 464.16 169.24C463.174 167.893 461.68 167.22 459.68 167.22C458.667 167.22 457.78 167.393 457.02 167.74C456.274 168.087 455.647 168.587 455.14 169.24C454.647 169.893 454.274 170.7 454.02 171.66C453.78 172.607 453.66 173.68 453.66 174.88C453.66 177.28 454.154 179.153 455.14 180.5C456.14 181.833 457.654 182.5 459.68 182.5ZM490.496 164.74V185H488.376C487.869 185 487.549 184.753 487.416 184.26L487.136 182.08C486.256 183.053 485.269 183.84 484.176 184.44C483.082 185.027 481.829 185.32 480.416 185.32C479.309 185.32 478.329 185.14 477.476 184.78C476.636 184.407 475.929 183.887 475.356 183.22C474.782 182.553 474.349 181.747 474.056 180.8C473.776 179.853 473.636 178.807 473.636 177.66V164.74H477.196V177.66C477.196 179.193 477.542 180.38 478.236 181.22C478.942 182.06 480.016 182.48 481.456 182.48C482.509 182.48 483.489 182.233 484.396 181.74C485.316 181.233 486.162 180.54 486.936 179.66V164.74H490.496ZM499.52 168.8C500.16 167.413 500.947 166.333 501.88 165.56C502.814 164.773 503.954 164.38 505.3 164.38C505.727 164.38 506.134 164.427 506.52 164.52C506.92 164.613 507.274 164.76 507.58 164.96L507.32 167.62C507.24 167.953 507.04 168.12 506.72 168.12C506.534 168.12 506.26 168.08 505.9 168C505.54 167.92 505.134 167.88 504.68 167.88C504.04 167.88 503.467 167.973 502.96 168.16C502.467 168.347 502.02 168.627 501.62 169C501.234 169.36 500.88 169.813 500.56 170.36C500.254 170.893 499.974 171.507 499.72 172.2V185H496.14V164.74H498.18C498.567 164.74 498.834 164.813 498.98 164.96C499.127 165.107 499.227 165.36 499.28 165.72L499.52 168.8ZM535.586 160.82C535.466 161.02 535.332 161.173 535.186 161.28C535.052 161.373 534.886 161.42 534.686 161.42C534.459 161.42 534.192 161.307 533.886 161.08C533.579 160.853 533.192 160.607 532.726 160.34C532.272 160.06 531.719 159.807 531.066 159.58C530.426 159.353 529.646 159.24 528.726 159.24C527.859 159.24 527.092 159.36 526.426 159.6C525.772 159.827 525.219 160.14 524.766 160.54C524.326 160.94 523.992 161.413 523.766 161.96C523.539 162.493 523.426 163.073 523.426 163.7C523.426 164.5 523.619 165.167 524.006 165.7C524.406 166.22 524.926 166.667 525.566 167.04C526.219 167.413 526.952 167.74 527.766 168.02C528.592 168.287 529.432 168.567 530.286 168.86C531.152 169.153 531.992 169.487 532.806 169.86C533.632 170.22 534.366 170.68 535.006 171.24C535.659 171.8 536.179 172.487 536.566 173.3C536.966 174.113 537.166 175.113 537.166 176.3C537.166 177.553 536.952 178.733 536.526 179.84C536.099 180.933 535.472 181.887 534.646 182.7C533.832 183.513 532.826 184.153 531.626 184.62C530.439 185.087 529.086 185.32 527.566 185.32C525.699 185.32 524.006 184.987 522.486 184.32C520.966 183.64 519.666 182.727 518.586 181.58L519.706 179.74C519.812 179.593 519.939 179.473 520.086 179.38C520.246 179.273 520.419 179.22 520.606 179.22C520.779 179.22 520.972 179.293 521.186 179.44C521.412 179.573 521.666 179.747 521.946 179.96C522.226 180.173 522.546 180.407 522.906 180.66C523.266 180.913 523.672 181.147 524.126 181.36C524.592 181.573 525.119 181.753 525.706 181.9C526.292 182.033 526.952 182.1 527.686 182.1C528.606 182.1 529.426 181.973 530.146 181.72C530.866 181.467 531.472 181.113 531.966 180.66C532.472 180.193 532.859 179.64 533.126 179C533.392 178.36 533.526 177.647 533.526 176.86C533.526 175.993 533.326 175.287 532.926 174.74C532.539 174.18 532.026 173.713 531.386 173.34C530.746 172.967 530.012 172.653 529.186 172.4C528.359 172.133 527.519 171.867 526.666 171.6C525.812 171.32 524.972 171 524.146 170.64C523.319 170.28 522.586 169.813 521.946 169.24C521.306 168.667 520.786 167.953 520.386 167.1C519.999 166.233 519.806 165.167 519.806 163.9C519.806 162.887 519.999 161.907 520.386 160.96C520.786 160.013 521.359 159.173 522.106 158.44C522.866 157.707 523.792 157.12 524.886 156.68C525.992 156.24 527.259 156.02 528.686 156.02C530.286 156.02 531.739 156.273 533.046 156.78C534.366 157.287 535.526 158.02 536.526 158.98L535.586 160.82ZM545.033 167.44C545.899 166.52 546.859 165.787 547.913 165.24C548.966 164.693 550.179 164.42 551.553 164.42C552.659 164.42 553.633 164.607 554.473 164.98C555.326 165.34 556.033 165.86 556.593 166.54C557.166 167.207 557.599 168.013 557.893 168.96C558.186 169.907 558.333 170.953 558.333 172.1V185H554.753V172.1C554.753 170.567 554.399 169.38 553.693 168.54C552.999 167.687 551.939 167.26 550.513 167.26C549.459 167.26 548.473 167.513 547.553 168.02C546.646 168.527 545.806 169.213 545.033 170.08V185H541.453V155.54H545.033V167.44ZM572.298 164.42C573.778 164.42 575.111 164.667 576.298 165.16C577.484 165.653 578.498 166.353 579.338 167.26C580.178 168.167 580.818 169.267 581.258 170.56C581.711 171.84 581.938 173.273 581.938 174.86C581.938 176.46 581.711 177.9 581.258 179.18C580.818 180.46 580.178 181.553 579.338 182.46C578.498 183.367 577.484 184.067 576.298 184.56C575.111 185.04 573.778 185.28 572.298 185.28C570.804 185.28 569.458 185.04 568.258 184.56C567.071 184.067 566.058 183.367 565.218 182.46C564.378 181.553 563.731 180.46 563.278 179.18C562.838 177.9 562.618 176.46 562.618 174.86C562.618 173.273 562.838 171.84 563.278 170.56C563.731 169.267 564.378 168.167 565.218 167.26C566.058 166.353 567.071 165.653 568.258 165.16C569.458 164.667 570.804 164.42 572.298 164.42ZM572.298 182.5C574.298 182.5 575.791 181.833 576.778 180.5C577.764 179.153 578.258 177.28 578.258 174.88C578.258 172.467 577.764 170.587 576.778 169.24C575.791 167.893 574.298 167.22 572.298 167.22C571.284 167.22 570.398 167.393 569.638 167.74C568.891 168.087 568.264 168.587 567.758 169.24C567.264 169.893 566.891 170.7 566.638 171.66C566.398 172.607 566.278 173.68 566.278 174.88C566.278 177.28 566.771 179.153 567.758 180.5C568.758 181.833 570.271 182.5 572.298 182.5ZM603.113 164.74V185H600.993C600.486 185 600.166 184.753 600.033 184.26L599.753 182.08C598.873 183.053 597.886 183.84 596.793 184.44C595.699 185.027 594.446 185.32 593.033 185.32C591.926 185.32 590.946 185.14 590.093 184.78C589.253 184.407 588.546 183.887 587.973 183.22C587.399 182.553 586.966 181.747 586.673 180.8C586.393 179.853 586.253 178.807 586.253 177.66V164.74H589.813V177.66C589.813 179.193 590.159 180.38 590.853 181.22C591.559 182.06 592.633 182.48 594.073 182.48C595.126 182.48 596.106 182.233 597.013 181.74C597.933 181.233 598.779 180.54 599.553 179.66V164.74H603.113ZM612.438 155.54V185H608.877V155.54H612.438ZM631.411 169.56C630.744 168.667 630.024 168.047 629.251 167.7C628.477 167.34 627.611 167.16 626.651 167.16C624.771 167.16 623.324 167.833 622.311 169.18C621.297 170.527 620.791 172.447 620.791 174.94C620.791 176.26 620.904 177.393 621.131 178.34C621.357 179.273 621.691 180.047 622.131 180.66C622.571 181.26 623.111 181.7 623.751 181.98C624.391 182.26 625.117 182.4 625.931 182.4C627.104 182.4 628.124 182.133 628.991 181.6C629.871 181.067 630.677 180.313 631.411 179.34V169.56ZM634.971 155.54V185H632.851C632.344 185 632.024 184.753 631.891 184.26L631.571 181.8C630.704 182.84 629.717 183.68 628.611 184.32C627.504 184.96 626.224 185.28 624.771 185.28C623.611 185.28 622.557 185.06 621.611 184.62C620.664 184.167 619.857 183.507 619.191 182.64C618.524 181.773 618.011 180.693 617.651 179.4C617.291 178.107 617.111 176.62 617.111 174.94C617.111 173.447 617.311 172.06 617.711 170.78C618.111 169.487 618.684 168.367 619.431 167.42C620.177 166.473 621.091 165.733 622.171 165.2C623.264 164.653 624.491 164.38 625.851 164.38C627.091 164.38 628.151 164.593 629.031 165.02C629.924 165.433 630.717 166.013 631.411 166.76V155.54H634.971ZM654.153 172.66C654.153 171.833 654.033 171.08 653.793 170.4C653.567 169.707 653.227 169.113 652.773 168.62C652.333 168.113 651.793 167.727 651.153 167.46C650.513 167.18 649.787 167.04 648.973 167.04C647.267 167.04 645.913 167.54 644.913 168.54C643.927 169.527 643.313 170.9 643.073 172.66H654.153ZM657.033 182.16C656.593 182.693 656.067 183.16 655.453 183.56C654.84 183.947 654.18 184.267 653.473 184.52C652.78 184.773 652.06 184.96 651.313 185.08C650.567 185.213 649.827 185.28 649.093 185.28C647.693 185.28 646.4 185.047 645.213 184.58C644.04 184.1 643.02 183.407 642.153 182.5C641.3 181.58 640.633 180.447 640.153 179.1C639.673 177.753 639.433 176.207 639.433 174.46C639.433 173.047 639.647 171.727 640.073 170.5C640.513 169.273 641.14 168.213 641.953 167.32C642.767 166.413 643.76 165.707 644.933 165.2C646.107 164.68 647.427 164.42 648.893 164.42C650.107 164.42 651.227 164.627 652.253 165.04C653.293 165.44 654.187 166.027 654.933 166.8C655.693 167.56 656.287 168.507 656.713 169.64C657.14 170.76 657.353 172.04 657.353 173.48C657.353 174.04 657.293 174.413 657.173 174.6C657.053 174.787 656.827 174.88 656.493 174.88H642.953C642.993 176.16 643.167 177.273 643.473 178.22C643.793 179.167 644.233 179.96 644.793 180.6C645.353 181.227 646.02 181.7 646.793 182.02C647.567 182.327 648.433 182.48 649.393 182.48C650.287 182.48 651.053 182.38 651.693 182.18C652.347 181.967 652.907 181.74 653.373 181.5C653.84 181.26 654.227 181.04 654.533 180.84C654.853 180.627 655.127 180.52 655.353 180.52C655.647 180.52 655.873 180.633 656.033 180.86L657.033 182.16ZM665.106 168.8C665.746 167.413 666.533 166.333 667.466 165.56C668.4 164.773 669.54 164.38 670.886 164.38C671.313 164.38 671.72 164.427 672.106 164.52C672.506 164.613 672.86 164.76 673.166 164.96L672.906 167.62C672.826 167.953 672.626 168.12 672.306 168.12C672.12 168.12 671.846 168.08 671.486 168C671.126 167.92 670.72 167.88 670.266 167.88C669.626 167.88 669.053 167.973 668.546 168.16C668.053 168.347 667.606 168.627 667.206 169C666.82 169.36 666.466 169.813 666.146 170.36C665.84 170.893 665.56 171.507 665.306 172.2V185H661.726V164.74H663.766C664.153 164.74 664.42 164.813 664.566 164.96C664.713 165.107 664.813 165.36 664.866 165.72L665.106 168.8Z" fill="black"/>
</svg>
