<svg width="783" height="251" viewBox="0 0 783 251" fill="none" xmlns="http://www.w3.org/2000/svg">
<circle cx="30" cy="22" r="22" fill="#D48325"/>
<path d="M60.5318 53.944C60.9958 53.944 61.3638 54.08 61.6357 54.352C61.9078 54.624 62.0438 54.976 62.0438 55.408V58H39.0998V56.536C39.0998 56.232 39.1638 55.92 39.2918 55.6C39.4198 55.28 39.6198 54.984 39.8918 54.712L50.9078 43.648C51.8198 42.72 52.6518 41.832 53.4038 40.984C54.1558 40.12 54.7958 39.256 55.3238 38.392C55.8518 37.528 56.2598 36.656 56.5478 35.776C56.8358 34.88 56.9798 33.928 56.9798 32.92C56.9798 31.912 56.8198 31.032 56.4998 30.28C56.1798 29.512 55.7398 28.88 55.1798 28.384C54.6358 27.888 53.9878 27.52 53.2358 27.28C52.4838 27.024 51.6758 26.896 50.8118 26.896C49.9318 26.896 49.1238 27.024 48.3878 27.28C47.6518 27.536 46.9958 27.896 46.4198 28.36C45.8598 28.808 45.3878 29.344 45.0038 29.968C44.6198 30.592 44.3478 31.28 44.1878 32.032C43.9958 32.592 43.7318 32.968 43.3958 33.16C43.0758 33.336 42.6198 33.384 42.0278 33.304L39.7958 32.92C40.0198 31.352 40.4518 29.968 41.0918 28.768C41.7478 27.552 42.5638 26.536 43.5398 25.72C44.5318 24.904 45.6598 24.288 46.9238 23.872C48.1878 23.44 49.5558 23.224 51.0278 23.224C52.4838 23.224 53.8438 23.44 55.1078 23.872C56.3718 24.304 57.4678 24.936 58.3958 25.768C59.3238 26.584 60.0518 27.584 60.5798 28.768C61.1078 29.952 61.3718 31.296 61.3718 32.8C61.3718 34.08 61.1798 35.272 60.7958 36.376C60.4118 37.464 59.8918 38.504 59.2358 39.496C58.5798 40.488 57.8198 41.456 56.9558 42.4C56.1078 43.344 55.2038 44.296 54.2438 45.256L45.1718 54.52C45.8118 54.344 46.4598 54.208 47.1158 54.112C47.7718 54 48.4038 53.944 49.0118 53.944H60.5318ZM91.0875 40.816C91.0875 43.824 90.7595 46.432 90.1035 48.64C89.4635 50.832 88.5835 52.648 87.4635 54.088C86.3435 55.528 85.0155 56.6 83.4795 57.304C81.9595 58.008 80.3275 58.36 78.5835 58.36C76.8235 58.36 75.1835 58.008 73.6635 57.304C72.1595 56.6 70.8475 55.528 69.7275 54.088C68.6075 52.648 67.7275 50.832 67.0875 48.64C66.4475 46.432 66.1275 43.824 66.1275 40.816C66.1275 37.808 66.4475 35.2 67.0875 32.992C67.7275 30.784 68.6075 28.96 69.7275 27.52C70.8475 26.064 72.1595 24.984 73.6635 24.28C75.1835 23.576 76.8235 23.224 78.5835 23.224C80.3275 23.224 81.9595 23.576 83.4795 24.28C85.0155 24.984 86.3435 26.064 87.4635 27.52C88.5835 28.96 89.4635 30.784 90.1035 32.992C90.7595 35.2 91.0875 37.808 91.0875 40.816ZM86.6475 40.816C86.6475 38.192 86.4235 35.992 85.9755 34.216C85.5435 32.424 84.9515 30.984 84.1995 29.896C83.4635 28.808 82.6075 28.032 81.6315 27.568C80.6555 27.088 79.6395 26.848 78.5835 26.848C77.5275 26.848 76.5115 27.088 75.5355 27.568C74.5595 28.032 73.7035 28.808 72.9675 29.896C72.2315 30.984 71.6395 32.424 71.1915 34.216C70.7595 35.992 70.5435 38.192 70.5435 40.816C70.5435 43.44 70.7595 45.64 71.1915 47.416C71.6395 49.192 72.2315 50.624 72.9675 51.712C73.7035 52.8 74.5595 53.584 75.5355 54.064C76.5115 54.528 77.5275 54.76 78.5835 54.76C79.6395 54.76 80.6555 54.528 81.6315 54.064C82.6075 53.584 83.4635 52.8 84.1995 51.712C84.9515 50.624 85.5435 49.192 85.9755 47.416C86.4235 45.64 86.6475 43.44 86.6475 40.816ZM116.219 53.944C116.683 53.944 117.051 54.08 117.323 54.352C117.595 54.624 117.731 54.976 117.731 55.408V58H94.7873V56.536C94.7873 56.232 94.8513 55.92 94.9793 55.6C95.1073 55.28 95.3073 54.984 95.5793 54.712L106.595 43.648C107.507 42.72 108.339 41.832 109.091 40.984C109.843 40.12 110.483 39.256 111.011 38.392C111.539 37.528 111.947 36.656 112.235 35.776C112.523 34.88 112.667 33.928 112.667 32.92C112.667 31.912 112.507 31.032 112.187 30.28C111.867 29.512 111.427 28.88 110.867 28.384C110.323 27.888 109.675 27.52 108.923 27.28C108.171 27.024 107.363 26.896 106.499 26.896C105.619 26.896 104.811 27.024 104.075 27.28C103.339 27.536 102.683 27.896 102.107 28.36C101.547 28.808 101.075 29.344 100.691 29.968C100.307 30.592 100.035 31.28 99.8753 32.032C99.6833 32.592 99.4193 32.968 99.0833 33.16C98.7633 33.336 98.3073 33.384 97.7153 33.304L95.4833 32.92C95.7073 31.352 96.1393 29.968 96.7793 28.768C97.4353 27.552 98.2513 26.536 99.2273 25.72C100.219 24.904 101.347 24.288 102.611 23.872C103.875 23.44 105.243 23.224 106.715 23.224C108.171 23.224 109.531 23.44 110.795 23.872C112.059 24.304 113.155 24.936 114.083 25.768C115.011 26.584 115.739 27.584 116.267 28.768C116.795 29.952 117.059 31.296 117.059 32.8C117.059 34.08 116.867 35.272 116.483 36.376C116.099 37.464 115.579 38.504 114.923 39.496C114.267 40.488 113.507 41.456 112.643 42.4C111.795 43.344 110.891 44.296 109.931 45.256L100.859 54.52C101.499 54.344 102.147 54.208 102.803 54.112C103.459 54 104.091 53.944 104.699 53.944H116.219ZM123.495 32.92C123.719 31.352 124.151 29.968 124.791 28.768C125.431 27.552 126.239 26.536 127.215 25.72C128.207 24.904 129.335 24.288 130.599 23.872C131.879 23.44 133.255 23.224 134.727 23.224C136.183 23.224 137.527 23.432 138.759 23.848C139.991 24.264 141.047 24.856 141.927 25.624C142.823 26.392 143.519 27.32 144.015 28.408C144.511 29.496 144.759 30.704 144.759 32.032C144.759 33.12 144.615 34.096 144.327 34.96C144.055 35.808 143.655 36.552 143.127 37.192C142.615 37.832 141.991 38.376 141.255 38.824C140.519 39.272 139.695 39.64 138.783 39.928C141.023 40.504 142.703 41.496 143.823 42.904C144.959 44.296 145.527 46.04 145.527 48.136C145.527 49.72 145.223 51.144 144.615 52.408C144.023 53.672 143.207 54.752 142.167 55.648C141.127 56.528 139.911 57.208 138.519 57.688C137.143 58.152 135.663 58.384 134.079 58.384C132.255 58.384 130.695 58.16 129.399 57.712C128.103 57.248 127.007 56.616 126.111 55.816C125.215 55.016 124.479 54.072 123.903 52.984C123.327 51.88 122.839 50.688 122.439 49.408L124.287 48.64C124.767 48.432 125.231 48.376 125.679 48.472C126.143 48.568 126.479 48.832 126.687 49.264C126.895 49.712 127.151 50.248 127.455 50.872C127.775 51.496 128.207 52.096 128.751 52.672C129.295 53.248 129.983 53.736 130.815 54.136C131.663 54.536 132.735 54.736 134.031 54.736C135.231 54.736 136.279 54.544 137.175 54.16C138.087 53.76 138.839 53.248 139.431 52.624C140.039 52 140.495 51.304 140.799 50.536C141.103 49.768 141.255 49.008 141.255 48.256C141.255 47.328 141.135 46.48 140.895 45.712C140.655 44.944 140.207 44.28 139.551 43.72C138.895 43.16 137.991 42.72 136.839 42.4C135.703 42.08 134.239 41.92 132.447 41.92V38.824C133.919 38.808 135.167 38.648 136.191 38.344C137.231 38.04 138.071 37.624 138.711 37.096C139.367 36.568 139.839 35.936 140.127 35.2C140.431 34.464 140.583 33.648 140.583 32.752C140.583 31.76 140.423 30.896 140.103 30.16C139.799 29.424 139.375 28.816 138.831 28.336C138.287 27.856 137.639 27.496 136.887 27.256C136.151 27.016 135.351 26.896 134.487 26.896C133.623 26.896 132.815 27.024 132.063 27.28C131.327 27.536 130.671 27.896 130.095 28.36C129.535 28.808 129.063 29.344 128.679 29.968C128.295 30.592 128.023 31.28 127.863 32.032C127.655 32.592 127.391 32.968 127.071 33.16C126.767 33.336 126.319 33.384 125.727 33.304L123.495 32.92ZM182.299 18.352H186.283V50.512H182.299V18.352ZM170.059 24.016H183.787V27.232H170.059V24.016ZM158.539 57.52H187.435V60.784H158.539V57.52ZM158.539 47.728H162.523V59.008H158.539V47.728ZM153.115 21.52H157.099V41.968H153.115V21.52ZM153.115 40.72H156.379C162.571 40.72 168.379 40.384 175.147 39.184L175.531 42.496C168.571 43.744 162.763 44.032 156.379 44.032H153.115V40.72ZM170.059 32.272H183.787V35.536H170.059V32.272ZM43.968 85.968C43.68 86.448 43.36 86.816 43.008 87.072C42.688 87.296 42.288 87.408 41.808 87.408C41.264 87.408 40.624 87.136 39.888 86.592C39.152 86.048 38.224 85.456 37.104 84.816C36.016 84.144 34.688 83.536 33.12 82.992C31.584 82.448 29.712 82.176 27.504 82.176C25.424 82.176 23.584 82.464 21.984 83.04C20.416 83.584 19.088 84.336 18 85.296C16.944 86.256 16.144 87.392 15.6 88.704C15.056 89.984 14.784 91.376 14.784 92.88C14.784 94.8 15.248 96.4 16.176 97.68C17.136 98.928 18.384 100 19.92 100.896C21.488 101.792 23.248 102.576 25.2 103.248C27.184 103.888 29.2 104.56 31.248 105.264C33.328 105.968 35.344 106.768 37.296 107.664C39.28 108.528 41.04 109.632 42.576 110.976C44.144 112.32 45.392 113.968 46.32 115.92C47.28 117.872 47.76 120.272 47.76 123.12C47.76 126.128 47.248 128.96 46.224 131.616C45.2 134.24 43.696 136.528 41.712 138.48C39.76 140.432 37.344 141.968 34.464 143.088C31.616 144.208 28.368 144.768 24.72 144.768C20.24 144.768 16.176 143.968 12.528 142.368C8.88 140.736 5.76 138.544 3.168 135.792L5.856 131.376C6.112 131.024 6.416 130.736 6.768 130.512C7.152 130.256 7.568 130.128 8.016 130.128C8.432 130.128 8.896 130.304 9.408 130.656C9.952 130.976 10.56 131.392 11.232 131.904C11.904 132.416 12.672 132.976 13.536 133.584C14.4 134.192 15.376 134.752 16.464 135.264C17.584 135.776 18.848 136.208 20.256 136.56C21.664 136.88 23.248 137.04 25.008 137.04C27.216 137.04 29.184 136.736 30.912 136.128C32.64 135.52 34.096 134.672 35.28 133.584C36.496 132.464 37.424 131.136 38.064 129.6C38.704 128.064 39.024 126.352 39.024 124.464C39.024 122.384 38.544 120.688 37.584 119.376C36.656 118.032 35.424 116.912 33.888 116.016C32.352 115.12 30.592 114.368 28.608 113.76C26.624 113.12 24.608 112.48 22.56 111.84C20.512 111.168 18.496 110.4 16.512 109.536C14.528 108.672 12.768 107.552 11.232 106.176C9.696 104.8 8.448 103.088 7.488 101.04C6.56 98.96 6.096 96.4 6.096 93.36C6.096 90.928 6.56 88.576 7.488 86.304C8.448 84.032 9.824 82.016 11.616 80.256C13.44 78.496 15.664 77.088 18.288 76.032C20.944 74.976 23.984 74.448 27.408 74.448C31.248 74.448 34.736 75.056 37.872 76.272C41.04 77.488 43.824 79.248 46.224 81.552L43.968 85.968ZM103.341 136.416L103.293 144H60.909V75.216H103.293V82.8H70.221V105.648H97.005V112.944H70.221V136.416H103.341ZM152.843 118.464L142.043 90.48C141.723 89.648 141.387 88.688 141.035 87.6C140.683 86.48 140.347 85.296 140.027 84.048C139.355 86.64 138.667 88.8 137.963 90.528L127.163 118.464H152.843ZM172.235 144H165.035C164.203 144 163.531 143.792 163.019 143.376C162.507 142.96 162.123 142.432 161.867 141.792L155.435 125.184H124.571L118.139 141.792C117.947 142.368 117.579 142.88 117.035 143.328C116.491 143.776 115.819 144 115.019 144H107.819L135.323 75.216H144.731L172.235 144ZM216.468 85.968C216.18 86.448 215.86 86.816 215.508 87.072C215.188 87.296 214.788 87.408 214.308 87.408C213.764 87.408 213.124 87.136 212.388 86.592C211.652 86.048 210.724 85.456 209.604 84.816C208.516 84.144 207.188 83.536 205.62 82.992C204.084 82.448 202.212 82.176 200.004 82.176C197.924 82.176 196.084 82.464 194.484 83.04C192.916 83.584 191.588 84.336 190.5 85.296C189.444 86.256 188.644 87.392 188.1 88.704C187.556 89.984 187.284 91.376 187.284 92.88C187.284 94.8 187.748 96.4 188.676 97.68C189.636 98.928 190.884 100 192.42 100.896C193.988 101.792 195.748 102.576 197.7 103.248C199.684 103.888 201.7 104.56 203.748 105.264C205.828 105.968 207.844 106.768 209.796 107.664C211.78 108.528 213.54 109.632 215.076 110.976C216.644 112.32 217.892 113.968 218.82 115.92C219.78 117.872 220.26 120.272 220.26 123.12C220.26 126.128 219.748 128.96 218.724 131.616C217.7 134.24 216.196 136.528 214.212 138.48C212.26 140.432 209.844 141.968 206.964 143.088C204.116 144.208 200.868 144.768 197.22 144.768C192.74 144.768 188.676 143.968 185.028 142.368C181.38 140.736 178.26 138.544 175.668 135.792L178.356 131.376C178.612 131.024 178.916 130.736 179.268 130.512C179.652 130.256 180.068 130.128 180.516 130.128C180.932 130.128 181.396 130.304 181.908 130.656C182.452 130.976 183.06 131.392 183.732 131.904C184.404 132.416 185.172 132.976 186.036 133.584C186.9 134.192 187.876 134.752 188.964 135.264C190.084 135.776 191.348 136.208 192.756 136.56C194.164 136.88 195.748 137.04 197.508 137.04C199.716 137.04 201.684 136.736 203.412 136.128C205.14 135.52 206.596 134.672 207.78 133.584C208.996 132.464 209.924 131.136 210.564 129.6C211.204 128.064 211.524 126.352 211.524 124.464C211.524 122.384 211.044 120.688 210.084 119.376C209.156 118.032 207.924 116.912 206.388 116.016C204.852 115.12 203.092 114.368 201.108 113.76C199.124 113.12 197.108 112.48 195.06 111.84C193.012 111.168 190.996 110.4 189.012 109.536C187.028 108.672 185.268 107.552 183.732 106.176C182.196 104.8 180.948 103.088 179.988 101.04C179.06 98.96 178.596 96.4 178.596 93.36C178.596 90.928 179.06 88.576 179.988 86.304C180.948 84.032 182.324 82.016 184.116 80.256C185.94 78.496 188.164 77.088 190.788 76.032C193.444 74.976 196.484 74.448 199.908 74.448C203.748 74.448 207.236 75.056 210.372 76.272C213.54 77.488 216.324 79.248 218.724 81.552L216.468 85.968ZM296.961 109.632C296.961 114.784 296.145 119.52 294.513 123.84C292.881 128.128 290.577 131.824 287.601 134.928C284.625 138.032 281.041 140.448 276.849 142.176C272.689 143.872 268.081 144.72 263.025 144.72C257.969 144.72 253.361 143.872 249.201 142.176C245.041 140.448 241.473 138.032 238.497 134.928C235.521 131.824 233.217 128.128 231.585 123.84C229.953 119.52 229.137 114.784 229.137 109.632C229.137 104.48 229.953 99.76 231.585 95.472C233.217 91.152 235.521 87.44 238.497 84.336C241.473 81.2 245.041 78.768 249.201 77.04C253.361 75.312 257.969 74.448 263.025 74.448C268.081 74.448 272.689 75.312 276.849 77.04C281.041 78.768 284.625 81.2 287.601 84.336C290.577 87.44 292.881 91.152 294.513 95.472C296.145 99.76 296.961 104.48 296.961 109.632ZM287.409 109.632C287.409 105.408 286.833 101.616 285.681 98.256C284.529 94.896 282.897 92.064 280.785 89.76C278.673 87.424 276.113 85.632 273.105 84.384C270.097 83.136 266.737 82.512 263.025 82.512C259.345 82.512 256.001 83.136 252.993 84.384C249.985 85.632 247.409 87.424 245.265 89.76C243.153 92.064 241.521 94.896 240.369 98.256C239.217 101.616 238.641 105.408 238.641 109.632C238.641 113.856 239.217 117.648 240.369 121.008C241.521 124.336 243.153 127.168 245.265 129.504C247.409 131.808 249.985 133.584 252.993 134.832C256.001 136.048 259.345 136.656 263.025 136.656C266.737 136.656 270.097 136.048 273.105 134.832C276.113 133.584 278.673 131.808 280.785 129.504C282.897 127.168 284.529 124.336 285.681 121.008C286.833 117.648 287.409 113.856 287.409 109.632ZM366.012 75.216V144H361.356C360.62 144 359.996 143.872 359.484 143.616C359.004 143.36 358.524 142.928 358.044 142.32L318.252 90.48C318.316 91.28 318.364 92.064 318.396 92.832C318.428 93.6 318.444 94.32 318.444 94.992V144H310.284V75.216H315.084C315.5 75.216 315.852 75.248 316.14 75.312C316.428 75.344 316.684 75.424 316.908 75.552C317.132 75.648 317.356 75.808 317.58 76.032C317.804 76.224 318.044 76.48 318.3 76.8L358.092 128.592C358.028 127.76 357.964 126.96 357.9 126.192C357.868 125.392 357.852 124.64 357.852 123.936V75.216H366.012ZM471.711 109.632C471.711 114.784 470.895 119.52 469.263 123.84C467.631 128.128 465.327 131.824 462.351 134.928C459.375 138.032 455.791 140.448 451.599 142.176C447.439 143.872 442.831 144.72 437.775 144.72C432.719 144.72 428.111 143.872 423.951 142.176C419.791 140.448 416.223 138.032 413.247 134.928C410.271 131.824 407.967 128.128 406.335 123.84C404.703 119.52 403.887 114.784 403.887 109.632C403.887 104.48 404.703 99.76 406.335 95.472C407.967 91.152 410.271 87.44 413.247 84.336C416.223 81.2 419.791 78.768 423.951 77.04C428.111 75.312 432.719 74.448 437.775 74.448C442.831 74.448 447.439 75.312 451.599 77.04C455.791 78.768 459.375 81.2 462.351 84.336C465.327 87.44 467.631 91.152 469.263 95.472C470.895 99.76 471.711 104.48 471.711 109.632ZM462.159 109.632C462.159 105.408 461.583 101.616 460.431 98.256C459.279 94.896 457.647 92.064 455.535 89.76C453.423 87.424 450.863 85.632 447.855 84.384C444.847 83.136 441.487 82.512 437.775 82.512C434.095 82.512 430.751 83.136 427.743 84.384C424.735 85.632 422.159 87.424 420.015 89.76C417.903 92.064 416.271 94.896 415.119 98.256C413.967 101.616 413.391 105.408 413.391 109.632C413.391 113.856 413.967 117.648 415.119 121.008C416.271 124.336 417.903 127.168 420.015 129.504C422.159 131.808 424.735 133.584 427.743 134.832C430.751 136.048 434.095 136.656 437.775 136.656C441.487 136.656 444.847 136.048 447.855 134.832C450.863 133.584 453.423 131.808 455.535 129.504C457.647 127.168 459.279 124.336 460.431 121.008C461.583 117.648 462.159 113.856 462.159 109.632ZM494.346 82.8V106.848H522.618V114.432H494.346V144H485.034V75.216H527.418V82.8H494.346ZM548.627 82.8V106.848H576.899V114.432H548.627V144H539.315V75.216H581.699V82.8H548.627Z" fill="black"/>
<path d="M221.24 242.64C215.181 242.64 209.421 241.147 203.96 238.16C198.499 235.173 195.768 229.413 195.768 220.88C195.768 215.333 197.091 210.896 199.736 207.568C202.467 204.24 206.307 202.576 211.256 202.576C217.059 202.576 220.387 204.752 221.24 209.104C216.888 209.36 213.901 210.853 212.28 213.584C210.744 216.315 209.976 219.429 209.976 222.928C209.976 226.597 211.043 229.456 213.176 231.504C215.309 233.552 217.912 234.576 220.984 234.576C223.715 234.576 226.317 233.765 228.792 232.144C231.352 230.523 233.443 228.048 235.064 224.72C236.685 221.392 237.496 217.381 237.496 212.688C237.496 207.483 236.045 202.661 233.144 198.224C230.328 193.701 226.104 190.459 220.472 188.496C224.995 187.216 228.92 185.211 232.248 182.48C235.576 179.664 238.093 176.592 239.8 173.264C241.507 169.851 242.36 166.608 242.36 163.536C242.36 160.379 241.507 157.861 239.8 155.984C238.179 154.021 235.789 153.04 232.632 153.04C229.56 153.04 227.085 153.979 225.208 155.856C223.416 157.648 222.52 160.037 222.52 163.024C222.52 165.072 222.904 166.992 223.672 168.784C224.525 170.576 225.763 171.685 227.384 172.112C224.227 175.013 220.984 176.464 217.656 176.464C215.011 176.464 212.792 175.525 211 173.648C209.293 171.685 208.44 168.997 208.44 165.584C208.44 161.744 209.592 158.373 211.896 155.472C214.285 152.485 217.485 150.181 221.496 148.56C225.507 146.939 229.987 146.128 234.936 146.128C239.971 146.128 244.28 146.981 247.864 148.688C251.448 150.395 254.136 152.656 255.928 155.472C257.805 158.288 258.744 161.403 258.744 164.816C258.744 169.253 257.251 173.605 254.264 177.872C251.277 182.139 246.925 185.723 241.208 188.624C246.584 190.416 250.595 193.189 253.24 196.944C255.971 200.613 257.336 204.88 257.336 209.744C257.336 215.035 255.8 220.24 252.728 225.36C249.741 230.395 245.475 234.533 239.928 237.776C234.467 241.019 228.237 242.64 221.24 242.64ZM290.544 243.28C281.157 243.28 274.501 240.421 270.576 234.704C266.651 228.987 264.688 221.179 264.688 211.28C264.688 199.504 266.523 188.581 270.192 178.512C273.861 168.443 278.981 160.421 285.552 154.448C292.208 148.389 299.76 145.36 308.208 145.36C316.4 145.36 322.544 148.091 326.64 153.552C330.821 159.013 332.912 166.523 332.912 176.08C332.912 185.552 331.461 195.493 328.56 205.904C325.659 216.229 321.008 225.061 314.608 232.4C308.293 239.653 300.272 243.28 290.544 243.28ZM292.208 233.68C296.219 233.68 300.016 230.608 303.6 224.464C307.184 218.32 310.043 210.427 312.176 200.784C314.395 191.141 315.504 181.413 315.504 171.6C315.504 166.224 314.864 161.787 313.584 158.288C312.304 154.704 310.469 152.912 308.08 152.912C304.155 152.912 300.315 156.027 296.56 162.256C292.805 168.485 289.733 176.421 287.344 186.064C284.955 195.707 283.76 205.179 283.76 214.48C283.76 227.28 286.576 233.68 292.208 233.68ZM352.867 198.48C343.139 198.48 338.275 192.123 338.275 179.408C338.275 173.008 339.427 167.12 341.731 161.744C344.035 156.368 347.15 152.144 351.075 149.072C355.086 145.915 359.48 144.336 364.259 144.336C369.208 144.336 372.92 145.957 375.395 149.2C377.87 152.357 379.107 157.093 379.107 163.408C379.107 169.723 377.912 175.568 375.523 180.944C373.219 186.32 370.062 190.587 366.051 193.744C362.04 196.901 357.646 198.48 352.867 198.48ZM354.659 193.232C356.878 193.232 358.968 191.653 360.931 188.496C362.894 185.339 364.472 181.157 365.667 175.952C366.862 170.747 367.459 165.157 367.459 159.184C367.459 155.771 367.16 153.339 366.563 151.888C365.966 150.437 364.942 149.712 363.491 149.712C361.358 149.712 359.224 151.333 357.091 154.576C355.043 157.733 353.336 161.872 351.971 166.992C350.691 172.112 350.051 177.317 350.051 182.608C350.051 186.277 350.392 188.965 351.075 190.672C351.843 192.379 353.038 193.232 354.659 193.232ZM406.755 145.744H415.971L362.723 242H353.507L406.755 145.744ZM406.243 242.768C396.515 242.768 391.651 236.411 391.651 223.696C391.651 217.296 392.803 211.408 395.107 206.032C397.411 200.656 400.526 196.432 404.451 193.36C408.462 190.203 412.856 188.624 417.635 188.624C422.584 188.624 426.296 190.245 428.771 193.488C431.246 196.645 432.483 201.381 432.483 207.696C432.483 214.011 431.288 219.856 428.899 225.232C426.595 230.608 423.438 234.875 419.427 238.032C415.416 241.189 411.022 242.768 406.243 242.768ZM408.035 237.52C410.254 237.52 412.344 235.941 414.307 232.784C416.27 229.627 417.848 225.445 419.043 220.24C420.238 215.035 420.835 209.445 420.835 203.472C420.835 200.059 420.536 197.627 419.939 196.176C419.342 194.725 418.318 194 416.867 194C414.734 194 412.6 195.621 410.467 198.864C408.419 202.021 406.712 206.16 405.347 211.28C404.067 216.4 403.427 221.605 403.427 226.896C403.427 230.565 403.768 233.253 404.451 234.96C405.219 236.667 406.414 237.52 408.035 237.52ZM498.492 169.168C496.529 169.168 494.652 168.955 492.86 168.528C491.068 168.101 489.02 167.461 486.716 166.608C484.753 165.925 483.004 165.413 481.468 165.072C480.017 164.645 478.524 164.432 476.988 164.432C473.831 164.432 471.015 165.541 468.54 167.76L467.772 167.504C469.82 163.408 472.679 160.293 476.348 158.16C480.017 156.027 484.284 154.96 489.148 154.96C491.281 154.96 493.244 155.173 495.036 155.6C496.828 155.941 498.791 156.496 500.924 157.264C504.593 158.544 507.708 159.184 510.268 159.184C513.681 159.184 516.369 158.203 518.332 156.24L519.1 156.368C518.673 158.331 517.393 160.336 515.26 162.384C513.212 164.347 510.695 165.968 507.708 167.248C504.721 168.528 501.649 169.168 498.492 169.168ZM569.591 242.64C562.082 242.64 556.322 241.019 552.311 237.776C548.3 234.533 546.295 229.925 546.295 223.952C546.295 218.576 547.831 214.267 550.903 211.024C553.975 207.696 557.986 206.032 562.935 206.032C568.14 206.032 571.17 208.208 572.023 212.56C568.524 212.987 565.708 214.267 563.575 216.4C561.527 218.448 560.503 221.136 560.503 224.464C560.503 227.451 561.399 229.797 563.191 231.504C564.983 233.211 567.372 234.064 570.359 234.064C575.308 234.064 579.362 231.845 582.519 227.408C585.676 222.971 587.255 217.296 587.255 210.384C587.255 204.496 586.018 199.973 583.543 196.816C581.068 193.573 577.612 191.952 573.175 191.952C568.652 191.952 563.063 193.872 556.407 197.712L554.743 196.56L564.599 148.048C574.242 149.157 581.41 149.712 586.103 149.712C593.868 149.712 601.292 148.517 608.375 146.128C608.546 148.005 608.631 149.413 608.631 150.352C608.631 154.789 607.436 158.373 605.047 161.104C602.743 163.835 599.031 165.2 593.911 165.2C591.948 165.2 589.602 164.987 586.871 164.56C584.14 164.133 581.538 163.664 579.063 163.152C576.93 162.725 574.754 162.341 572.535 162L567.415 185.168C572.962 182.523 578.252 181.2 583.287 181.2C590.284 181.2 595.788 183.589 599.799 188.368C603.895 193.061 605.943 199.461 605.943 207.568C605.943 214.48 604.407 220.581 601.335 225.872C598.348 231.163 594.082 235.301 588.535 238.288C583.074 241.189 576.759 242.64 569.591 242.64ZM639.669 243.28C630.282 243.28 623.626 240.421 619.701 234.704C615.776 228.987 613.813 221.179 613.813 211.28C613.813 199.504 615.648 188.581 619.317 178.512C622.986 168.443 628.106 160.421 634.677 154.448C641.333 148.389 648.885 145.36 657.333 145.36C665.525 145.36 671.669 148.091 675.765 153.552C679.946 159.013 682.037 166.523 682.037 176.08C682.037 185.552 680.586 195.493 677.685 205.904C674.784 216.229 670.133 225.061 663.733 232.4C657.418 239.653 649.397 243.28 639.669 243.28ZM641.333 233.68C645.344 233.68 649.141 230.608 652.725 224.464C656.309 218.32 659.168 210.427 661.301 200.784C663.52 191.141 664.629 181.413 664.629 171.6C664.629 166.224 663.989 161.787 662.709 158.288C661.429 154.704 659.594 152.912 657.205 152.912C653.28 152.912 649.44 156.027 645.685 162.256C641.93 168.485 638.858 176.421 636.469 186.064C634.08 195.707 632.885 205.179 632.885 214.48C632.885 227.28 635.701 233.68 641.333 233.68ZM701.992 198.48C692.264 198.48 687.4 192.123 687.4 179.408C687.4 173.008 688.552 167.12 690.856 161.744C693.16 156.368 696.275 152.144 700.2 149.072C704.211 145.915 708.605 144.336 713.384 144.336C718.333 144.336 722.045 145.957 724.52 149.2C726.995 152.357 728.232 157.093 728.232 163.408C728.232 169.723 727.037 175.568 724.648 180.944C722.344 186.32 719.187 190.587 715.176 193.744C711.165 196.901 706.771 198.48 701.992 198.48ZM703.784 193.232C706.003 193.232 708.093 191.653 710.056 188.496C712.019 185.339 713.597 181.157 714.792 175.952C715.987 170.747 716.584 165.157 716.584 159.184C716.584 155.771 716.285 153.339 715.688 151.888C715.091 150.437 714.067 149.712 712.616 149.712C710.483 149.712 708.349 151.333 706.216 154.576C704.168 157.733 702.461 161.872 701.096 166.992C699.816 172.112 699.176 177.317 699.176 182.608C699.176 186.277 699.517 188.965 700.2 190.672C700.968 192.379 702.163 193.232 703.784 193.232ZM755.88 145.744H765.096L711.848 242H702.632L755.88 145.744ZM755.368 242.768C745.64 242.768 740.776 236.411 740.776 223.696C740.776 217.296 741.928 211.408 744.232 206.032C746.536 200.656 749.651 196.432 753.576 193.36C757.587 190.203 761.981 188.624 766.76 188.624C771.709 188.624 775.421 190.245 777.896 193.488C780.371 196.645 781.608 201.381 781.608 207.696C781.608 214.011 780.413 219.856 778.024 225.232C775.72 230.608 772.563 234.875 768.552 238.032C764.541 241.189 760.147 242.768 755.368 242.768ZM757.16 237.52C759.379 237.52 761.469 235.941 763.432 232.784C765.395 229.627 766.973 225.445 768.168 220.24C769.363 215.035 769.96 209.445 769.96 203.472C769.96 200.059 769.661 197.627 769.064 196.176C768.467 194.725 767.443 194 765.992 194C763.859 194 761.725 195.621 759.592 198.864C757.544 202.021 755.837 206.16 754.472 211.28C753.192 216.4 752.552 221.605 752.552 226.896C752.552 230.565 752.893 233.253 753.576 234.96C754.344 236.667 755.539 237.52 757.16 237.52Z" fill="#681111"/>
</svg>
